<?xml version="1.0"?>
<svg xmlns="http://www.w3.org/2000/svg" xmlns:xlink="http://www.w3.org/1999/xlink" xmlns:svgjs="http://svgjs.com/svgjs" version="1.1" width="512" height="512" x="0" y="0" viewBox="0 0 64 64" style="enable-background:new 0 0 512 512" xml:space="preserve" class=""><g transform="matrix(1,0,0,1,0,0)"><g xmlns="http://www.w3.org/2000/svg" id="truck-Delivery-food-order-transportation"><path d="m27.12 35h1.88v-6.28l-1.14-.38z" fill="#f8b500" data-original="#000000" style="" class=""/><path d="m56 46a6.634 6.634 0 0 1 -.08 1h2.08v-3h-2.29a7.268 7.268 0 0 1 .29 2z" fill="#f8b500" data-original="#000000" style="" class=""/><path d="m25 22v3.28l4 1.33v-9.51a5.009 5.009 0 0 0 -4 4.9z" fill="#f8b500" data-original="#000000" style="" class=""/><path d="m22.71 44a7.268 7.268 0 0 1 .29 2 6.634 6.634 0 0 1 -.08 1h19.16a6.634 6.634 0 0 1 -.08-1 7.268 7.268 0 0 1 .29-2z" fill="#f8b500" data-original="#000000" style="" class=""/><circle cx="16" cy="46" r="5" fill="#f8b500" data-original="#000000" style="" class=""/><circle cx="49" cy="46" r="5" fill="#f8b500" data-original="#000000" style="" class=""/><path d="m5 44v3h4.08a6.634 6.634 0 0 1 -.08-1 7.268 7.268 0 0 1 .29-2z" fill="#f8b500" data-original="#000000" style="" class=""/><path d="m15 27c-.06 0-.12-.02-.18-.02l-.73 8.02h1.82l-.73-8.02c-.06 0-.12.02-.18.02z" fill="#f8b500" data-original="#000000" style="" class=""/><path d="m49.87 19.18a3.018 3.018 0 0 0 -2.89-2.18h-6.98v12h12.67z" fill="#f8b500" data-original="#000000" style="" class=""/><path d="m38 13h-34v29h6.26a6.991 6.991 0 0 1 11.48 0h16.26zm-19 10a4 4 0 0 1 -1.86 3.37l.86 9.54a1.01 1.01 0 0 1 -1 1.09h-4a1.01 1.01 0 0 1 -1-1.09l.86-9.54a4 4 0 0 1 -1.86-3.37v-8h2v4h1v-4h2v4h1v-4h2zm12 13a1 1 0 0 1 -1 1h-4a1.022 1.022 0 0 1 -.75-.33 1 1 0 0 1 -.24-.78l.91-8.2-2.24-.74a1.014 1.014 0 0 1 -.68-.95v-4a7.008 7.008 0 0 1 7-7 1 1 0 0 1 1 1z" fill="#f8b500" data-original="#000000" style="" class=""/><path d="m56.52 31h-16.52v11h3.26a6.991 6.991 0 0 1 11.48 0h5.26v-6.65z" fill="#f8b500" data-original="#000000" style="" class=""/><path d="m13 23a2 2 0 0 0 4 0v-2h-4z" fill="#f8b500" data-original="#000000" style="" class=""/></g></g></svg>
