<svg xmlns="http://www.w3.org/2000/svg"><defs><font id="DarkerGrotesque" horiz-adv-x="456"><font-face font-family="Darker Grotesque SemiBold" ascent="1060" descent="-296" alphabetic="0"/><glyph glyph-name="space" horiz-adv-x="228"/><glyph unicode="!" glyph-name="exclam" horiz-adv-x="205" d="M82 152q-7 108-15 186T57 465t9 74 44 24q31 0 42-24t10-74-10-128-14-185l-8 2q-8 2-20 2-11 0-19-2t-9-2zM111-9Q81-9 71 6T61 43q0 20 10 35t40 15q28 0 38-14t11-36q0-22-10-37T111-9z"/><glyph unicode="&quot;" glyph-name="quotedbl" horiz-adv-x="315" d="M37 369v57h21q25 0 33 9t8 28q-32-2-45 12t-14 39q0 20 10 34t40 15q23 0 35-14t13-54q0-54-17-90t-62-36H37zm147 0v57h21q25 0 33 9t8 28q-32-2-45 12t-14 39q0 20 10 34t40 15q23 0 35-14t13-54q0-54-17-90t-62-36h-22z"/><glyph unicode="#" glyph-name="numbersign" horiz-adv-x="691" d="m87 0 61 152H28v72h149l48 119H83v72h166l49 148h79l-61-148h134l49 148h79l-60-148h118v-72H489l-48-119h143v-72H417L367 0h-79l62 152H215L165 0H87zm152 225v-1h140l48 119H287l-48-118z"/><glyph unicode="$" glyph-name="dollar" horiz-adv-x="544" d="m247-109 4 99q-49 4-94 25T82 77 46 180l82 12q0-2 1-16t9-33 25-37 46-31 77-13q47 0 74 14t40 34 12 34q1 32-18 51t-51 30-70 21-75 22-69 30-49 49-16 79q4 61 53 100t134 46l-4 100h83l-5-102q48-7 87-29t61-62 22-94l-79-11q0 41-16 65t-40 37-49 17-40 4q-48 0-83-21t-37-59q-1-32 18-51t52-30 70-21 76-20 69-29 49-50 16-80q-2-41-26-71t-63-49-87-25l5-100h-83z"/><glyph unicode="%" glyph-name="percent" horiz-adv-x="592" d="M132 332q-54 0-79 32t-25 88q0 55 24 88t80 33q54 0 79-33t26-88q0-53-25-86t-80-34zM116 0 58 41l228 258 191 264 57-40-219-247L116 0zm15 385q28 0 39 19t12 49q0 30-11 49t-40 20q-28 0-39-19t-12-50q0-30 11-49t40-19zM460-10q-54 0-78 33t-25 89q0 54 24 87t79 33q54 0 79-33t25-87q0-54-25-88t-79-34zm-1 53q28 0 40 19t12 49q0 30-12 50t-40 20q-28 0-39-19t-12-51q0-29 11-48t40-20z"/><glyph unicode="&amp;" glyph-name="ampersand" horiz-adv-x="641" d="M593-2q-37 15-69 32t-69 42q-41-40-94-60T254-9 153 8 79 64t-29 94q0 39 15 66t37 44 44 29 35 19q-8 11-22 30t-26 44-12 58q0 40 21 67t55 42 72 14 72-12 55-39 22-67q0-34-17-60t-42-46-45-30-27-14q11-14 32-36t50-47 59-47q11 17 21 45t10 57-21 50l70 47q8-12 17-38t13-61-4-73-33-73q29-20 56-35t67-31L593-2zM241 342q7 3 24 12t35 22 31 29 15 36q2 26-13 41t-37 21-46 1-38-21-16-43q1-43 45-98zm149-223q-45 34-89 76t-75 81q-37-18-65-42t-28-66q0-44 27-69t70-33 85 6 75 47z"/><glyph unicode="'" glyph-name="quotesingle" horiz-adv-x="192" d="M52 369v57h21q25 0 33 9t8 28q-32-2-45 12t-14 39q0 20 10 34t40 15q23 0 35-14t13-54q0-54-17-90t-62-36H52z"/><glyph unicode="(" glyph-name="parenleft" horiz-adv-x="309" d="m233-199-19 15q-19 15-48 48t-56 79T62 55 43 200q-1 81 18 145t48 113 57 81 47 48 20 16l64-65q-4-3-25-17t-50-40-57-65-47-93-19-123q0-71 20-125t49-93 59-65 50-37 20-12l-64-67z"/><glyph unicode=")" glyph-name="parenright" horiz-adv-x="299" d="M67-199 3-132l19 12q19 12 49 37t59 64 50 94 20 125q0 69-19 123t-47 93-57 65-50 40-24 17l64 65q-1 0 18-16t48-48 57-80 47-113 20-146q0-81-19-145T190-56t-56-80-48-47-19-16z"/><glyph unicode="*" glyph-name="asterisk" horiz-adv-x="380" d="m353 418-132-23 93-95-62-45-62 117-62-117-62 45 94 95-132 23 24 72 119-60-19 133h77l-19-133 119 60 24-72z"/><glyph unicode="+" glyph-name="plus" horiz-adv-x="355" d="M148 84v110H38v60h110v110h60V254h110v-60H208V84h-60z"/><glyph unicode="," glyph-name="comma" horiz-adv-x="206" d="M53-95v58h21q25 0 33 9t8 28Q83-2 70 12T56 50q0 21 10 35t40 15q23 0 35-14t13-54q0-54-17-90T75-95H53z"/><glyph unicode="-" glyph-name="hyphen" horiz-adv-x="317" d="M40 195v60h222v-60H40z"/><glyph unicode="." glyph-name="period" horiz-adv-x="192" d="M87 0Q56 0 46 15T35 54q0 21 10 36t42 16q29 0 39-15t11-37q0-23-10-38T87 0z"/><glyph unicode="/" glyph-name="slash" horiz-adv-x="369" d="m25 0 254 563h80L105 0H25z"/><glyph unicode="0" glyph-name="zero" horiz-adv-x="529" d="M265-14Q143-14 86 65T28 280q0 89 24 154t77 102 136 37q81 0 133-36t78-102 26-155q0-87-25-153T399 23 265-14zm-1 70q83 0 121 58t39 166q0 107-38 165t-122 59q-81 0-119-56t-39-168q0-107 37-165t121-59z"/><glyph unicode="1" glyph-name="one" horiz-adv-x="354" d="M314 72V0H63v72h91v382q-9-34-27-52t-38-27-35-10-21-2v89q6-1 25 1t43 14 41 34 19 62h74V72h79z"/><glyph unicode="2" glyph-name="two" horiz-adv-x="506" d="M40 0v69q1 1 26 16t66 41 83 60 81 72 56 75q23 48 15 85t-40 59-78 22q-57-1-91-37t-28-108l-77 10q-5 64 20 109t74 70 111 25q54 0 96-19t67-54 29-79-21-93q-19-37-52-72t-74-67-77-55-65-39-35-18h335V0H40z"/><glyph unicode="3" glyph-name="three" horiz-adv-x="504" d="M259-10q-62 0-113 22T64 79 33 192l79 10q3-69 46-104t102-35q56 0 94 29t39 77q0 38-19 59t-47 30-50 9h-73v45h75q45 0 74 20t30 62q0 51-35 80t-94 30q-47 0-76-20t-44-47-15-52l-75 11q1 16 11 45t33 59 63 52 101 21q96 0 151-43t55-118q0-50-27-83t-76-42q49-9 82-45t34-89q0-50-27-87t-76-56-109-20z"/><glyph unicode="4" glyph-name="four" horiz-adv-x="511" d="M28 115v72q49 22 90 64t72 95 46 109 17 108h89q0-68-29-138t-80-132-119-106h205v94h83v-94h74v-72h-74V0h-83v115H28z"/><glyph unicode="5" glyph-name="five" horiz-adv-x="517" d="M257-10q-92 0-146 45T43 145l83 11q1-6 7-21t21-32 40-30 65-12q43 0 72 17t46 45 18 58q3 33-11 63t-44 51-76 20q-44 0-70-14t-37-30-12-16l-84 15 29 293h360v-72H150l-20-190 8 10q8 10 27 25t48 26 73 11q68 0 111-28t63-73 17-92q-4-48-30-91t-75-71-115-28z"/><glyph unicode="6" glyph-name="six" horiz-adv-x="537" d="M277-10q-81 0-132 38T69 129 45 268q0 57 15 112t47 98 78 69 110 26q56 0 92-16t55-39 28-38 8-17l-81-17-10 13q-10 13-33 27t-63 14q-50 0-91-33t-62-94-10-149q1 15 12 39t32 47 56 39 84 15q64-1 105-28t61-70 16-90-29-90-73-69-115-27zm4 70q51-1 83 24t45 61 5 74-39 63-81 28q-49 1-83-20t-53-56-18-71q11-50 50-76t91-27z"/><glyph unicode="7" glyph-name="seven" horiz-adv-x="495" d="M199 0h-83q0 115 33 208t92 163 134 120H42v72h413v-70q-24-16-57-42t-67-64-65-93-48-127T199 0z"/><glyph unicode="8" glyph-name="eight" horiz-adv-x="550" d="M273-10q-67 0-119 18T71 63t-31 90q0 55 37 95t102 50q-45 9-68 31t-30 48-8 45q0 45 25 79t71 53 104 19q61 0 106-19t70-54 25-78q0-19-7-44t-31-48-68-32q65-12 102-50t38-95q0-54-31-90T392 8 273-10zm0 329q57 0 92 21t35 66q0 49-36 75t-91 27q-57 0-91-27t-35-75q0-46 36-66t90-21zm0-263q71 0 112 31t41 80q0 55-41 82t-112 28q-70 0-111-27t-41-83q0-49 41-80t111-31z"/><glyph unicode="9" glyph-name="nine" horiz-adv-x="538" d="M259-10q-63 0-103 17T94 48 62 90t-9 19l81 19q0-1 6-10t20-22 39-22 60-10q78 0 116 68t35 199q-2-15-13-37t-33-45-53-37-76-15q-67 0-110 27t-64 69-19 89 28 90 73 69 118 27q85 0 137-40t74-108 19-146q-3-79-26-143T393 28 259-10zm-7 259q65 0 102 39t45 99q-14 57-51 85t-88 28q-53 0-85-25t-45-62-3-75 41-63 84-26z"/><glyph unicode=":" glyph-name="colon" horiz-adv-x="212" d="M106 268q-30 0-40 15t-11 38q0 21 10 36t41 16q30 0 40-16t10-36q0-23-10-38t-40-15zm0-230q-30 0-40 15T55 91q0 21 10 36t41 16q30 0 40-15t10-37q0-22-10-37t-40-16z"/><glyph unicode=";" glyph-name="semicolon" horiz-adv-x="211" d="M110 305q-31 0-41 15t-10 38q0 21 10 36t41 16q29 0 39-15t11-37q0-23-10-38t-40-15zM58-95v58h21q25 0 33 9t9 28Q88-2 75 12T61 50q0 21 11 35t39 15q23 0 35-14t13-54q0-54-17-90T81-95H58z"/><glyph unicode="&lt;" glyph-name="less" horiz-adv-x="411" d="M363 395v-68l-253-96 253-96V65L43 231l320 164z"/><glyph unicode="=" glyph-name="equal" horiz-adv-x="401" d="M40 261v57h306v-57H40zm0-133v57h306v-57H40z"/><glyph unicode="&gt;" glyph-name="greater" horiz-adv-x="408" d="m43 395 320-164L43 65v70l253 96-253 96v68z"/><glyph unicode="?" glyph-name="question" horiz-adv-x="442" d="M251 155h-75q0 33 15 59t38 48 45 44 38 45 18 53q1 41-25 66t-74 26q-43 0-65-20t-31-48-8-54H48q-6 48 10 92t58 74 111 29q51 0 93-19t67-54 25-82q0-40-16-68t-40-50-48-42-40-43-17-56zM214-9q-30 0-40 15t-10 37q0 21 10 35t40 15q28 0 38-14t10-36q0-23-10-37T214-9z"/><glyph unicode="@" glyph-name="at" horiz-adv-x="784" d="M358 39q-62 0-91 43t-19 109q6 43 28 77t54 53 69 20q39 0 65-17t38-48l7 52h64l-32-180q-3-19-3-36t7-29 28-12q37 0 62 25t38 65 10 84-23 83q-26 48-72 78t-102 43-112 5-102-34q-61-34-98-96t-41-141q-5-71 21-123t74-84 110-43 130 1 136 47l42-71q-72-40-155-55t-162-5-145 50T81 6 46 173q2 104 52 185t135 123q62 30 135 37t143-10 124-58 81-105q20-50 17-104t-26-101-63-77-95-30q-42 0-58 20t-14 51q-21-31-52-48t-67-17zm20 47q31 0 50 12t29 29 16 35 7 29q7 45-7 73t-61 29q-39 0-69-28t-37-76q-6-45 12-74t60-29z"/><glyph unicode="A" glyph-name="A" horiz-adv-x="554" d="m19 0 189 563h137L538 0h-89l-54 168H161L107 0H19zm259 528-95-294h190l-95 294z"/><glyph unicode="B" glyph-name="B" horiz-adv-x="549" d="M58 0v563h213q33 0 71-4t71-19 54-45 21-81q0-32-12-59t-46-45-94-19v-4q71-1 109-20t54-49 15-68q0-53-23-83t-59-44-76-19-77-4H58zm82 323h121q41 0 73 4t52 23 19 56q0 41-20 59t-53 24-70 5H140V323zm0-255h132q43 0 78 5t56 25 22 62q0 43-22 64t-60 27-82 7H140V68z"/><glyph unicode="C" glyph-name="C" horiz-adv-x="599" d="M300-10q-78 0-141 32T59 119 22 280q1 95 37 160t99 99 146 34q109 0 176-58t83-152h-86q-8 48-34 77t-63 42-76 13q-95 0-147-54t-52-156q0-106 51-161t145-56q65 0 116 31t63 103h87q-17-94-84-153T300-10z"/><glyph unicode="D" glyph-name="D" horiz-adv-x="597" d="M562 282q0-111-43-172T399 24 217 0H65v563h152q104 0 181-31t121-94 43-156zM148 70h91q71 0 124 16t82 63 29 134q0 105-64 156t-171 52h-91V70z"/><glyph unicode="E" glyph-name="E" horiz-adv-x="490" d="M137 68h318V0H55v563h390v-72H137V320h240v-69H137V68z"/><glyph unicode="F" glyph-name="F" horiz-adv-x="477" d="M150 0H68v563h395v-72H150V332h243v-69H150V0z"/><glyph unicode="G" glyph-name="G" horiz-adv-x="616" d="M291-12q-82 0-142 34t-94 98-32 159q1 94 36 159t99 100 147 35q110 0 174-49t84-145l-80-11q-16 68-65 97t-113 30q-102 0-150-56t-51-155q0-103 54-159t154-57q68 0 118 34t62 107H353v63h221V0h-57l-19 111h-2q-10-26-34-54T395 8 291-12z"/><glyph unicode="H" glyph-name="H" horiz-adv-x="585" d="M146 0H63v563h83V321h294v242h82V0h-82v256H146V0z"/><glyph unicode="I" glyph-name="I" horiz-adv-x="360" d="M294 72V0H59v72h77v419H59v72h235v-72h-76V72h76z"/><glyph unicode="J" glyph-name="J" horiz-adv-x="451" d="M215-10q-46 0-86 17T65 62t-25 98h78q0-23 8-45t28-38 59-15q47 0 70 26t23 94v316H193v65h196V194q0-64-15-109t-53-70-106-25z"/><glyph unicode="K" glyph-name="K" horiz-adv-x="566" d="M68 0v563h83V284l273 279h108v-11L301 331 544 11V0h-96L240 274l-89-86V0H68z"/><glyph unicode="L" glyph-name="L" horiz-adv-x="469" d="M65 0v563h83V72h295V0H65z"/><glyph unicode="M" glyph-name="M" horiz-adv-x="719" d="M58 0v563h144L360 37h2l155 526h144V0h-85l5 524h-2L421 0H298L141 524h-2l4-524H58z"/><glyph unicode="N" glyph-name="N" horiz-adv-x="594" d="M451 563h85V0H379L142 526h-2V0H55v563h147L449 37h2v526z"/><glyph unicode="O" glyph-name="O" horiz-adv-x="608" d="M297-14Q162-14 91 65T20 280q0 89 30 154t92 102 155 37q135 0 205-79t71-214q0-87-31-153T449 23 297-14zm-1 80q97 0 146 60t49 154q0 94-48 154t-147 61q-96 0-145-58t-50-157q0-62 21-110t64-76 110-28z"/><glyph unicode="P" glyph-name="P" horiz-adv-x="494" d="M143 0H60v563h220q93 0 144-46t51-138q0-83-52-129t-143-46H143V0zm127 494H143V267h127q60 0 94 28t35 85q0 59-34 86t-95 28z"/><glyph unicode="Q" glyph-name="Q" horiz-adv-x="619" d="M379-121q-22 0-44 6t-39 29-18 73Q159-2 97 76T34 280q0 88 30 154t93 102 155 37q90 0 151-36t93-102 32-154q0-120-59-199T356-11q1-22 8-33t37-12q9 0 23 6t25 6l3-63q-2 0-17-3t-32-7-24-4zM311 68q96 0 144 58t49 157q0 97-48 156t-145 59q-95 0-144-56t-49-159q0-98 47-156t146-59z"/><glyph unicode="R" glyph-name="R" horiz-adv-x="543" d="M59 0v563h197q108 0 167-35t60-128q0-64-32-107t-98-43q39 0 58-17t26-42 9-53 6-49 16-31 41 1V9Q495-3 473-7t-45 2-37 31-16 69q0 53-6 83t-28 44-69 16-129 0V0H59zm84 300h116q51 0 84 6t49 27 17 61q0 47-20 68t-58 26-94 6h-94V300z"/><glyph unicode="S" glyph-name="S" horiz-adv-x="540" d="M273-12q-61 0-117 19T65 69 28 180h84q0-4 3-22t19-40 50-38 95-16q49 0 77 14t40 33 13 34q0 31-19 50t-53 30-72 21-79 21-71 31-51 49-16 79q3 69 65 108t162 39q58 0 108-21t80-63 30-105h-81q0 35-15 56t-38 34-48 16-45 5q-57 0-93-21t-37-57q-1-32 19-51t53-30 72-20 79-20 72-29 51-50 17-80q-3-47-32-80T387 6 273-12z"/><glyph unicode="T" glyph-name="T" horiz-adv-x="457" d="M10 491v72h430v-72H267V0h-83v491H10z"/><glyph unicode="U" glyph-name="U" horiz-adv-x="586" d="M292-14q-116 0-177 66T53 240v323h87V241q0-65 21-103t55-56 76-17q45 0 79 16t54 55 20 105v322h87V240q0-123-60-188T292-14z"/><glyph unicode="V" glyph-name="V" horiz-adv-x="536" d="M435 563h91L334 0H195L3 563h90L264 37l171 526z"/><glyph unicode="W" glyph-name="W" horiz-adv-x="830" d="M721 563h89L659 0H525L410 455 293 0H158L10 563h89L226 37l139 525v1h89L592 37l129 526z"/><glyph unicode="X" glyph-name="X" horiz-adv-x="560" d="m23 0 204 298L41 563h100l140-214 141 214h98L337 298 541 0h-98L281 244 120 0H23z"/><glyph unicode="Y" glyph-name="Y" horiz-adv-x="439" d="M175 0v202L-17 563h93l142-286 141 286h93L258 203V0h-83z"/><glyph unicode="Z" glyph-name="Z" horiz-adv-x="554" d="M40 0v70l362 421H69v72h439v-71L150 73h356V0H40z"/><glyph unicode="[" glyph-name="bracketleft" horiz-adv-x="270" d="M255-199H35v802h220v-77H116v-647l139-1v-77z"/><glyph unicode="\" glyph-name="backslash" horiz-adv-x="349" d="M262 0 8 563h80L342 0h-80z"/><glyph unicode="]" glyph-name="bracketright" horiz-adv-x="280" d="M35-199v77l144 1v647H40v77h220v-802H35z"/><glyph unicode="^" glyph-name="asciicircum" horiz-adv-x="423" d="M28 320v23l183 219 184-219v-23h-80L212 489h-2L108 320H28z"/><glyph unicode="_" glyph-name="underscore" horiz-adv-x="547" d="M30 0v60h462V0H30z"/><glyph unicode="`" glyph-name="grave" horiz-adv-x="600" d="m117 632-81 97v16h72l48-101v-12h-39z"/><glyph unicode="a" glyph-name="a" horiz-adv-x="440" d="M180-9q-57 0-92 26T37 91 20 200q0 93 38 152t122 60q45 0 73-16t43-36 22-35h2v84h85V0h-71l-14 73h-2q-6-15-22-34T252 5 180-9zm33 71q59 0 82 38t24 99q0 64-24 101t-82 37q-42 0-66-18t-34-50-11-69q0-59 25-98t86-40z"/><glyph unicode="b" glyph-name="b" horiz-adv-x="485" d="M276-10q-38 0-65 12t-44 30-25 31-10 19h-2L117 0H45v563h85l1-250h2q1 4 8 19t24 33 43 31 68 13q89 0 131-59t43-152q0-92-42-150T276-10zm-24 72q44 0 69 19t36 51 11 67q0 34-11 65t-38 50-71 20q-58 0-87-37t-29-98q0-62 30-99t90-38z"/><glyph unicode="c" glyph-name="c" horiz-adv-x="461" d="M230-10q-58 0-104 24T54 84 27 196q1 65 28 113t72 74 105 27q58 0 99-22t66-57 29-76h-77q-8 39-38 61t-76 22q-60 0-93-38t-34-98q0-64 32-101t94-38q43 0 75 22t40 64h77q-5-42-29-78t-67-59-100-22z"/><glyph unicode="d" glyph-name="d" horiz-adv-x="496" d="M218-10q-90 0-132 58T44 198q0 94 42 152t132 59q40 0 67-13t43-31 24-33 9-19h2l1 250h85V0h-72l-13 82h-2q-2-4-10-18t-25-32-44-29-65-13zm24 72q58 0 89 37t31 100q0 60-29 97t-87 38q-44 0-70-19t-38-51-12-65q0-35 10-66t36-51 70-20z"/><glyph unicode="e" glyph-name="e" horiz-adv-x="457" d="M226-10q-69 0-113 30T48 99 27 200q-1 59 22 107t68 76 107 28q53 0 95-23t68-66 27-101v-11q0-8 1-15H106q0-64 31-99t88-36q42 0 71 21t37 58h81q-9-64-58-106T226-10zM109 236h222q-1 11-6 29t-16 35-33 30-54 12q-41 0-64-17t-35-42-14-47z"/><glyph unicode="f" glyph-name="f" horiz-adv-x="278" d="M75-2v351H15v60h60v79q0 44 19 66t63 22h114v-66H158V409h108v-60H158V-2H75z"/><glyph unicode="g" glyph-name="g" horiz-adv-x="465" d="M145-175v78h192V82h-2q-2-4-10-18t-24-32-44-29-65-13q-90 0-132 58T18 199q0 94 43 152t132 58q40 0 66-13t43-31 23-33 9-19h2l1 96h85V-52q0-66-25-94t-83-29H145zm70 237q58 0 89 37t31 100q0 60-29 97t-87 38q-44 0-70-19t-38-51-12-65q0-35 10-66t36-51 70-20z"/><glyph unicode="h" glyph-name="h" horiz-adv-x="466" d="M43 0v563h85V314h2q1 4 8 19t22 32 42 31 66 13q53 0 84-21t46-54 19-68 4-66V0h-81v201q0 38-8 68t-29 48-63 18q-42 0-67-20t-35-52-10-68V0H43z"/><glyph unicode="i" glyph-name="i" horiz-adv-x="192" d="M97 454q-27-1-36 13t-9 35q0 18 9 32t36 14q26 0 35-14t10-32q0-21-9-34t-36-14zM55 0v409h83V0H55z"/><glyph unicode="j" glyph-name="j" horiz-adv-x="215" d="M121 448q-28 0-37 14t-10 36q0 19 9 33t38 15q27 0 36-14t10-34q0-21-9-35t-37-15zm-43-39h84V-87q0-45-20-66t-62-22H9v66h69v518z"/><glyph unicode="k" glyph-name="k" horiz-adv-x="439" d="M129 0H45v563h84V201l198 210h104L257 236 434 0H334L199 176l-70-70V0z"/><glyph unicode="l" glyph-name="l" horiz-adv-x="182" d="M50 0v563h82V0H50z"/><glyph unicode="m" glyph-name="m" horiz-adv-x="660" d="M38 0v409h72l2-95h2l8 20q6 15 21 32t39 30 59 13q53 0 78-28t37-67h2q1 5 9 20t23 32 41 30 61 13q39 0 63-16t38-41 19-54 7-55 1-43V0h-71v201q0 15-1 37t-9 45-25 37-50 15q-38 0-59-20t-30-52-9-68V0h-71v201q0 15-1 37t-9 45-25 37-50 15q-38 0-59-20t-30-52-9-68V0H38z"/><glyph unicode="n" glyph-name="n" d="M38 0v408h71l14-94h2q1 4 8 19t23 32 43 31 68 13q54 0 84-20t44-53 17-69 4-67V0h-81v201q0 38-8 68t-29 48-63 18q-42 0-67-20t-35-52-10-68V0H38z"/><glyph unicode="o" glyph-name="o" horiz-adv-x="465" d="M227-10Q125-10 75 49T25 199q-1 92 50 151t152 60q98 0 149-58t51-153q0-59-21-106t-66-75-113-28zm0 71q48 0 73 21t36 53 10 67q0 34-10 66t-35 54-74 22q-49 0-75-21t-36-54-10-67q0-34 10-66t36-54 75-21z"/><glyph unicode="p" glyph-name="p" horiz-adv-x="484" d="M279-10q-39 0-65 12t-43 30-24 31-10 19h-2v-257H50v584h72l14-96h2q1 4 8 19t23 33 42 31 67 13q90 0 133-59t43-152q0-93-43-150T279-10zm-22 72q44 0 69 19t36 51 11 67q0 34-11 65t-38 50-71 20q-58 0-87-37t-29-98q0-62 30-99t90-38z"/><glyph unicode="q" glyph-name="q" horiz-adv-x="484" d="M205-10q-89 0-132 58T30 198q0 93 43 152t133 59q40 0 66-13t42-31 23-33 9-19h2l14 96h72v-584h-85V82h-2q-2-4-10-18t-24-32-43-29-65-13zm22 72q58 0 89 37t31 100q0 60-29 97t-87 38q-44 0-70-19t-38-51-12-65q0-35 10-66t36-51 70-20z"/><glyph unicode="r" glyph-name="r" horiz-adv-x="320" d="M45 0v409h77l7-111q6 27 23 52t49 42 81 17h17v-92h-18q-61 0-94-15t-46-45-13-73V0H45z"/><glyph unicode="s" glyph-name="s" horiz-adv-x="409" d="M205-10q-46 0-86 20T54 63t-25 73h78q0-2 1-15t9-29 28-28 59-12q42 0 68 15t26 42q0 25-19 39t-49 22-63 17-63 21-48 37-18 64q0 54 45 83t116 30q45 0 86-14t67-47 26-86h-77q1 34-15 51t-41 24-45 7q-40 0-63-14t-23-39q0-26 19-39t49-22 63-17 64-21 49-37 20-64q0-59-49-86T205-10z"/><glyph unicode="t" glyph-name="t" horiz-adv-x="291" d="M156 0q-43 0-62 22T74 89v260H11v60q31 0 46 5t21 28 6 72h69V409h94v-60h-94V66h95V0h-92z"/><glyph unicode="u" glyph-name="u" horiz-adv-x="453" d="M185-10q-52 0-82 19T58 61t-19 68-5 70v210h82V199q0-36 7-67t28-49 66-19q42 0 65 19t32 49 11 63l1 214h85V0h-71l-14 85h-2q-4-13-19-35T261 9t-76-19z"/><glyph unicode="v" glyph-name="v" horiz-adv-x="430" d="M325 409h82v-15L260 0H143L-5 393v16h81L202 69h2l121 340z"/><glyph unicode="w" glyph-name="w" horiz-adv-x="620" d="M107 0 5 394v16h81l80-340h2l96 340h73l99-340h2l79 340h81v-16L495 0H378l-76 266h-2L225 0H107z"/><glyph unicode="x" glyph-name="x" horiz-adv-x="432" d="m5 0 150 211L13 409h92l102-148 102 148h93L260 211 411 0h-93L207 160 97 0H5z"/><glyph unicode="y" glyph-name="y" horiz-adv-x="424" d="M-2-186v65h59q21 0 35 9t34 51l35 77L1 409h86l115-307 123 307h87L202-70q-22-51-40-76t-40-32-55-8H-2z"/><glyph unicode="z" glyph-name="z" horiz-adv-x="438" d="M35 0v61l263 286H49v64h349v-61L138 65h260V0H35z"/><glyph unicode="{" glyph-name="braceleft" horiz-adv-x="320" d="M295-196q-95-17-141 2t-55 76 5 156q6 47 0 73t-18 37-27 13-26 3v81q11 0 25 2t27 13 19 37 0 73q-14 98-5 154t55 74 141 5v-77q-55 12-81 6t-34-28-5-56 10-76q8-48 5-82t-25-55-68-32q47-11 68-31t25-54-5-82q-6-43-9-77t3-55 34-28 82 5v-77z"/><glyph unicode="|" glyph-name="bar" horiz-adv-x="204" d="M60-151v752h84v-752H60z"/><glyph unicode="}" glyph-name="braceright" horiz-adv-x="333" d="M38-196v77q54-12 81-6t34 28 4 56-9 77q-8 48-5 81t24 54 69 32q-47 11-68 32t-25 55 5 82q5 42 9 76t-3 55-35 28-81-5v77q77 6 120-2t62-34 19-75-10-122q-6-47-1-73t19-37 27-13 26-2v-81q-11 0-25-2t-28-14-18-37 0-73q11-74 11-122t-19-75-62-35-121-2z"/><glyph unicode="~" glyph-name="asciitilde" horiz-adv-x="338" d="M225 195q-26 0-40 10t-24 23-19 23-24 10q-19 0-23-16t-3-42H40q0 18 3 43t18 45 53 19q25 0 39-10t24-23 19-22 25-10q19 0 22 17t4 42h51q1-22-3-47t-20-44-50-18z"/><glyph glyph-name="uni00A0" horiz-adv-x="228"/><glyph unicode="¡" glyph-name="exclamdown" horiz-adv-x="192" d="M98 373q27 0 36-14t10-36q0-19-9-33t-37-14q-29 0-38 14t-10 33q0 21 9 35t39 15zM67 211l9-2q9-2 21-2 15 0 22 2t8 2q6-121 12-200t7-126-10-65-39-19q-28 0-39 19t-11 64T53 9t14 202z"/><glyph unicode="¢" glyph-name="cent" horiz-adv-x="457" d="m186-94 4 87Q117 3 70 55T23 196q2 87 48 143t119 68l-4 87h83l-5-86q70-10 109-52t49-96l-76-12q-10 44-38 67t-79 23q-60 0-92-38t-32-98q0-64 31-101t92-38q98 0 118 93l76-12q-10-56-49-98T264-7l5-87h-83z"/><glyph unicode="£" glyph-name="sterling" horiz-adv-x="641" d="M104-13 65 49q41 32 66 72t13 96l-102 1v62h78q-26 54-26 106t22 94 70 67 113 26q71 0 117-26t70-70 26-99l-79-11q-4 20-13 43t-26 45-44 35-66 13q-50-2-81-31t-34-77 27-110q1-3 2-5h209v-63H220q10-50-6-82t-42-62q34 16 67 16t64-9 59-17 54-7 49 19q21 17 24 45t-7 59l80 15q21-82-4-127t-75-55Q444-7 408-6T337 4t-70 18-75 3-82-34l-2-2q-1-1-4-2z"/><glyph unicode="¤" glyph-name="currency" horiz-adv-x="550" d="M444 4h-34l-41 59q-39-27-93-27-58 0-96 28L138 4h-31l54 77q-41 46-41 126 0 90 50 135l-47 65h34l35-50q33 20 84 20 48 0 82-19l34 49h35l-47-65q51-46 51-135 0-79-41-126l54-77zM276 57q24 0 44 6t37 17l6 6q3 3 7 6l-10-10 4 4 8 8 5 5q32 40 32 108 0 78-41 118-8 8-22 15-31 16-70 16-42 0-72-16-1-1-11-8t-10-8q-41-38-41-117 0-33 12-67t39-59q15-11 35-17t48-7z"/><glyph unicode="¥" glyph-name="yen" horiz-adv-x="495" d="M87 98v50h117v46H87v49h95L13 563h93l141-286 142 286h92L308 243h99v-47l-120-1v-47h120V98H287V0h-83v98H87z"/><glyph unicode="¦" glyph-name="brokenbar" horiz-adv-x="204" d="M60 294v307h84V294H60zm0-445v307h84v-307H60z"/><glyph unicode="§" glyph-name="section" horiz-adv-x="600" d="M418 223v-2q23-15 39-40t15-60q-3-56-51-88T304 1q-47 0-90 16t-72 50-30 86h31q0-2 1-15t9-31 25-35 48-29 80-12q45 0 72 11t40 27 18 31 5 22q1 38-21 59t-58 34-76 21-77 24-58 40-20 71q1 28 20 48t48 32v1q-31 17-50 42t-18 62q2 36 25 61t61 40 85 14q47 0 84-16t60-49 20-81h-30q1 36-13 59t-36 35-45 18-42 5q-59 0-97-25t-41-63q0-37 22-58t58-32 76-21 76-23 58-41 20-73q-1-28-16-48t-38-35zM162 369q0-35 17-55t48-32 65-20 70-18q11-2 15-3t6-2q8-2 12-1t6 3q26 17 33 37t7 29q1 33-16 54t-47 34-65 21-69 18q-14 3-21 4t-21-6q-39-26-40-63z"/><glyph unicode="¨" glyph-name="dieresis" horiz-adv-x="600" d="M100 677q-33 0-44 16t-11 39q0 21 11 37t44 16q33 0 43-16t11-37q0-23-10-39t-44-16zm169 0q-33 0-44 16t-11 39q0 21 11 37t44 16q33 0 43-16t11-37q0-23-10-39t-44-16z"/><glyph unicode="©" glyph-name="copyright" horiz-adv-x="627" d="M328-10q-61 0-114 22t-93 63-63 94-23 114q0 59 22 111t63 93 94 63 114 23q59 0 111-23t93-63 63-92 23-112q0-61-23-114t-63-93-92-63-112-23zm0 49q70 0 124 31t86 86 32 126q0 70-31 124t-86 86-125 32q-71 0-126-31t-86-86-32-125q0-71 31-126t87-86 126-31zm0 76q-68 0-114 42t-47 124q1 80 47 124t116 44q65 0 103-35t48-88l-54-9q-8 39-30 60t-67 21q-52 0-79-30t-28-83q0-57 27-88t79-31q82 0 99 87l55-14q-10-53-48-88t-107-36z"/><glyph unicode="ª" glyph-name="ordfeminine" horiz-adv-x="297" d="M127 404q-54 0-78 37t-24 97q0 60 24 98t78 39q30 0 48-10t27-24 14-22l1 54h58V410h-48l-9 46h-2q-5-14-25-33t-64-19zm23 48q37 0 52 23t15 63q0 40-15 63t-52 24q-40 0-55-25t-16-62q0-37 16-61t55-25z"/><glyph unicode="«" glyph-name="guillemotleft" horiz-adv-x="530" d="M317 519v-67L96 295l221-162V68L22 295l295 224zm170 0v-72L266 295l221-157V68L192 295l295 224z"/><glyph unicode="¬" glyph-name="logicalnot" horiz-adv-x="317" d="M40 196v56h222V113h-57v83H40z"/><glyph unicode="­" glyph-name="uni00AD" horiz-adv-x="280" d="M285 195v60h222v-60H285z"/><glyph unicode="®" glyph-name="registered" horiz-adv-x="408" d="M203 229q-48 0-87 23t-62 62-24 86q0 48 23 87t63 62 87 23q47 0 85-23t62-62 23-87q0-47-23-86t-61-62-86-23zm0 32q41 0 72 19t48 50 18 70q0 39-17 70t-49 51-72 19q-41 0-73-19t-49-50-18-71q0-38 17-69t50-51 73-19zm-65 56v175h63q35 0 54-11t19-41q0-21-11-35t-36-14q19 0 25-9t8-22 5-19 17-1v-19q-8-6-19-7t-21 7-9 29q0 17-3 26t-17 11-44 2v-72h-31zm31 95h32q22 0 33 4t11 21q0 20-13 24t-38 5h-25v-54z"/><glyph unicode="¯" glyph-name="overscore" horiz-adv-x="342" d="M40 730v60h262v-60H40z"/><glyph unicode="°" glyph-name="degree" horiz-adv-x="296" d="M135 363q-55 0-80 28t-25 76q0 48 24 77t81 29q54 0 80-29t27-77q0-45-26-74t-81-30zm-1 54q30 0 41 15t12 37q0 22-11 38t-42 16q-29 0-41-16t-12-38q0-23 13-37t40-15z"/><glyph unicode="±" glyph-name="plusminus" horiz-adv-x="317" d="M129 143v77H40v51h89v78h51v-78h82v-51h-82v-77h-51zM40 46v51h222V46H40z"/><glyph unicode="²" glyph-name="uni00B2" horiz-adv-x="240" d="M15 409v40l19 10q19 10 45 27t50 39 36 45q16 33 1 54t-47 22q-26 0-42-17t-12-54l-44 6q-5 49 25 77t78 28q35 0 60-17t33-44-8-60q-12-24-33-44t-46-35-43-25-24-11h162v-41H15z"/><glyph unicode="³" glyph-name="uni00B3" horiz-adv-x="243" d="M126 399q-47 0-79 24t-32 74l45 7q1-32 19-48t48-16q24 0 40 13t17 34q0 23-18 32t-35 9H99v25h33q20 0 34 8t14 28q0 22-15 35t-42 13q-31 0-45-18t-15-35l-42 6q0 10 9 30t31 38 61 18q47 0 73-20t27-56q0-23-13-39t-37-21q24-4 40-21t16-42q0-37-29-57t-73-21z"/><glyph unicode="´" glyph-name="acute" horiz-adv-x="600" d="M75 632H36v12l48 101h72v-16l-81-97z"/><glyph unicode="µ" glyph-name="uni00B5" horiz-adv-x="515" d="M67-155v564h82V198q0-36 7-66t28-49 66-18q41 0 64 18t32 49 12 62v215h85V1h-71l-9 67h-3q-12-27-36-52t-72-26q-40 0-63 13t-38 35h-2v-193H67z"/><glyph unicode="¶" glyph-name="paragraph" horiz-adv-x="516" d="M236-91v403h-19q-55 1-101 19t-73 60-27 114q0 70 27 111t72 61 100 21h285v-70h-63V-91h-71l-1 719h-58V-91h-71z"/><glyph unicode="·" glyph-name="middot" horiz-adv-x="229" d="M110 193q-39 0-52 19t-13 46q0 25 13 44t52 19q39 0 51-19t13-44q0-27-12-46t-52-19z"/><glyph unicode="¸" glyph-name="cedilla" horiz-adv-x="284" d="m35-118 27 41q12-12 33-19t44-9 38 6 15 26q-1 16-16 22t-35 3-35-17L70-44l41 87 41-16-39-61q14 12 36 17t46 2 38-18 16-42q0-31-21-50t-55-26-70 1-68 32z"/><glyph unicode="¹" glyph-name="uni00B9" horiz-adv-x="175" d="M30 408v42h45v185q-5-24-18-35t-26-16-16-4v52q4-1 19 1t30 14 16 38h42V450h38v-42H30z"/><glyph unicode="º" glyph-name="ordmasculine" horiz-adv-x="306" d="M154 410q-70 0-104 40T15 554q0 62 34 102t105 41q67 0 102-39t35-104q0-62-33-103t-104-41zm0 48q32 0 50 14t25 37 7 46q0 23-7 45t-25 38-50 15q-34 0-52-15t-24-37-7-46q0-23 6-45t25-37 52-15z"/><glyph unicode="»" glyph-name="guillemotright" horiz-adv-x="495" d="m185 519 295-224L185 68v65l221 162-221 157v67zm-170 0 295-224L15 68v70l221 157L15 447v72z"/><glyph unicode="¼" glyph-name="onequarter" horiz-adv-x="695" d="M38 290v42h45v185q-5-23-18-35t-26-16-16-4v53q4-1 19 1t30 13 16 38h42V332h38v-42H38zM166 0l-58 41 228 258 191 264 57-40-219-247L166 0zm268 55v41q34 15 58 46t37 67 14 68h52q0-48-30-98t-82-83h92v42h48V96h35V55h-35V0h-48v55H434z"/><glyph unicode="½" glyph-name="onehalf" horiz-adv-x="722" d="M38 290v42h45v185q-5-23-18-35t-26-16-16-4v53q4-1 19 1t30 13 16 38h42V332h38v-42H38zM166 0l-58 41 228 258 191 264 57-40-219-247L166 0zm309 0v40l19 10q19 10 45 27t50 39 36 45q16 33 1 54t-47 22q-26 0-42-17t-12-54l-44 6q-5 49 25 77t78 28q35 0 60-17t33-44-8-60q-12-24-33-44t-46-35-43-25-24-11h162V0H475z"/><glyph unicode="¾" glyph-name="threequarters" horiz-adv-x="695" d="M134 296q-47 0-79 24t-32 74l45 7q1-32 19-48t48-16q24 0 40 13t17 34q0 23-18 32t-35 9h-32v25h33q20 0 34 8t14 28q0 22-15 35t-42 13q-31 0-45-18t-15-35l-42 6q0 10 9 30t31 38 61 18q47 0 73-20t27-56q0-23-13-39t-37-21q24-4 40-21t16-42q0-37-29-57t-73-21zM166 0l-58 41 228 258 191 264 57-40-219-247L166 0zm268 55v41q34 15 58 46t37 67 14 68h52q0-48-30-98t-82-83h92v42h48V96h35V55h-35V0h-48v55H434z"/><glyph unicode="¿" glyph-name="questiondown" horiz-adv-x="439" d="M240 379q29 0 39-15t10-37q0-21-10-35t-39-15q-29 0-39 14t-10 36q0 22 10 37t39 15zm-37-164h74q0-33-15-59t-38-49-45-43-38-45-17-53q-2-41 24-66t74-26q43 0 65 19t31 48 9 55h79q5-48-11-93t-58-73-110-29q-52 0-94 19t-67 53-25 83q0 40 16 68t40 49 48 42 40 44 18 56z"/><glyph unicode="À" glyph-name="Agrave" horiz-adv-x="554" d="m19 0 189 563h137L538 0h-89l-54 168H161L107 0H19zm259 528-95-294h190l-95 294zm-24 82-81 97v16h72l48-101v-12h-39z"/><glyph unicode="Á" glyph-name="Aacute" horiz-adv-x="554" d="m19 0 189 563h137L538 0h-89l-54 168H161L107 0H19zm259 528-95-294h190l-95 294zm17 82h-39v12l48 101h72v-16l-81-97z"/><glyph unicode="Â" glyph-name="Acircumflex" horiz-adv-x="554" d="m19 0 189 563h137L538 0h-89l-54 168H161L107 0H19zm259 528-95-294h190l-95 294zM147 876v8l114 106h36l113-106v-8h-75l-54 59h-4l-52-59h-78z"/><glyph unicode="Ã" glyph-name="Atilde" horiz-adv-x="554" d="m19 0 189 563h137L538 0h-89l-54 168H161L107 0H19zm259 528-95-294h190l-95 294zm54 92q-24 0-38 8t-24 20-19 19-22 9q-17 0-20-14t-3-39h-52q0 18 3 42t17 42 50 18q24 0 38-8t24-20 19-19 23-8q17 0 20 14t3 40h51q1-24-3-48t-19-40-48-16z"/><glyph unicode="Ä" glyph-name="Adieresis" horiz-adv-x="554" d="m19 0 189 563h137L538 0h-89l-54 168H161L107 0H19zm259 528-95-294h190l-95 294zm-83 351q-33 0-44 16t-11 39q0 21 11 37t44 16q33 0 43-16t11-37q0-23-10-39t-44-16zm169 0q-33 0-44 16t-11 39q0 21 11 37t44 16q33 0 43-16t11-37q0-23-10-39t-44-16z"/><glyph unicode="Å" glyph-name="Aring" horiz-adv-x="554" d="m19 0 189 563h137L538 0h-89l-54 168H161L107 0H19zm259 528-95-294h190l-95 294zm-6 79q-47 0-71 25t-24 68q0 44 23 70t72 26q47 0 72-26t25-70q0-40-25-66t-72-27zm-1 49q23 0 35 13t12 33q0 20-12 33t-35 14q-22 0-34-14t-12-33q0-20 12-33t34-13z"/><glyph unicode="Æ" glyph-name="AE" horiz-adv-x="847" d="m19 0 334 563h448v-72H494V320h240v-69H494V68h317V0H412v168H205L108 0H19zm224 234h169v290L243 234z"/><glyph unicode="Ç" glyph-name="Ccedilla" horiz-adv-x="599" d="M300-10q-78 0-141 32T59 119 22 280q1 95 37 160t99 99 146 34q109 0 176-58t83-152h-86q-8 48-34 77t-63 42-76 13q-95 0-147-54t-52-156q0-106 51-161t145-56q65 0 116 31t63 103h87q-17-94-84-153T300-10zM200-134l27 41q12-12 33-19t44-9 38 6 15 26q-1 16-16 22t-35 3-35-17l-36 21 41 87 41-16-39-61q14 12 36 17t46 2 38-18 16-42q0-31-21-50t-55-26-70 1-68 32z"/><glyph unicode="È" glyph-name="Egrave" horiz-adv-x="490" d="M137 68h318V0H55v563h390v-72H137V320h240v-69H137V68zm76 798-81 97v16h72l48-101v-12h-39z"/><glyph unicode="É" glyph-name="Eacute" horiz-adv-x="490" d="M137 68h318V0H55v563h390v-72H137V320h240v-69H137V68zm114 542h-39v12l48 101h72v-16l-81-97z"/><glyph unicode="Ê" glyph-name="Ecircumflex" horiz-adv-x="490" d="M137 68h318V0H55v563h390v-72H137V320h240v-69H137V68zm-22 816v8l114 106h36l113-106v-8h-75l-54 59h-4l-52-59h-78z"/><glyph unicode="Ë" glyph-name="Edieresis" horiz-adv-x="490" d="M137 68h318V0H55v563h390v-72H137V320h240v-69H137V68zm32 811q-33 0-44 16t-11 39q0 21 11 37t44 16q33 0 43-16t11-37q0-23-10-39t-44-16zm169 0q-33 0-44 16t-11 39q0 21 11 37t44 16q33 0 43-16t11-37q0-23-10-39t-44-16z"/><glyph unicode="Ì" glyph-name="Igrave" horiz-adv-x="360" d="M294 72V0H59v72h77v419H59v72h235v-72h-76V72h76zM144 866l-81 97v16h72l48-101v-12h-39z"/><glyph unicode="Í" glyph-name="Iacute" horiz-adv-x="360" d="M294 72V0H59v72h77v419H59v72h235v-72h-76V72h76zM187 866h-39v12l48 101h72v-16l-81-97z"/><glyph unicode="Î" glyph-name="Icircumflex" horiz-adv-x="360" d="M294 72V0H59v72h77v419H59v72h235v-72h-76V72h76zm6 812v8l114 106h36l113-106v-8h-75l-54 59h-4l-52-59h-78z"/><glyph unicode="Ï" glyph-name="Idieresis" horiz-adv-x="360" d="M294 72V0H59v72h77v419H59v72h235v-72h-76V72h76zm55 807q-33 0-44 16t-11 39q0 21 11 37t44 16q33 0 43-16t11-37q0-23-10-39t-44-16zm169 0q-33 0-44 16t-11 39q0 21 11 37t44 16q33 0 43-16t11-37q0-23-10-39t-44-16z"/><glyph unicode="Ð" glyph-name="Eth" horiz-adv-x="600" d="M65 0v258H0v57h65v248h152q104 0 181-31t121-94 43-156q0-111-43-172T399 24 217 0H65zm83 70h91q71 0 124 16t82 63 29 134q0 105-64 156t-171 52h-91V315h156v-57H148V70z"/><glyph unicode="Ñ" glyph-name="Ntilde" horiz-adv-x="594" d="M451 563h85V0H379L142 526h-2V0H55v563h147L449 37h2v526zm-105 57q-24 0-38 8t-24 20-19 19-22 9q-17 0-20-14t-3-39h-52q0 18 3 42t17 42 50 18q24 0 38-8t24-20 19-19 23-8q17 0 20 14t3 40h51q1-24-3-48t-19-40-48-16z"/><glyph unicode="Ò" glyph-name="Ograve" horiz-adv-x="608" d="M297-14Q162-14 91 65T20 280q0 89 30 154t92 102 155 37q135 0 205-79t71-214q0-87-31-153T449 23 297-14zm-1 80q97 0 146 60t49 154q0 94-48 154t-147 61q-96 0-145-58t-50-157q0-62 21-110t64-76 110-28zm-23 544-81 97v16h72l48-101v-12h-39z"/><glyph unicode="Ó" glyph-name="Oacute" horiz-adv-x="608" d="M297-14Q162-14 91 65T20 280q0 89 30 154t92 102 155 37q135 0 205-79t71-214q0-87-31-153T449 23 297-14zm-1 80q97 0 146 60t49 154q0 94-48 154t-147 61q-96 0-145-58t-50-157q0-62 21-110t64-76 110-28zm24 544h-39v12l48 101h72v-16l-81-97z"/><glyph unicode="Ô" glyph-name="Ocircumflex" horiz-adv-x="608" d="M297-14Q162-14 91 65T20 280q0 89 30 154t92 102 155 37q135 0 205-79t71-214q0-87-31-153T449 23 297-14zm-1 80q97 0 146 60t49 154q0 94-48 154t-147 61q-96 0-145-58t-50-157q0-62 21-110t64-76 110-28zM167 884v8l114 106h36l113-106v-8h-75l-54 59h-4l-52-59h-78z"/><glyph unicode="Õ" glyph-name="Otilde" horiz-adv-x="608" d="M297-14Q162-14 91 65T20 280q0 89 30 154t92 102 155 37q135 0 205-79t71-214q0-87-31-153T449 23 297-14zm-1 80q97 0 146 60t49 154q0 94-48 154t-147 61q-96 0-145-58t-50-157q0-62 21-110t64-76 110-28zm56 557q-24 0-38 8t-24 20-19 19-22 9q-17 0-20-14t-3-39h-52q0 18 3 42t17 42 50 18q24 0 38-8t24-20 19-19 23-8q17 0 20 14t3 40h51q1-24-3-48t-19-40-48-16z"/><glyph unicode="Ö" glyph-name="Odieresis" horiz-adv-x="608" d="M297-14Q162-14 91 65T20 280q0 89 30 154t92 102 155 37q135 0 205-79t71-214q0-87-31-153T449 23 297-14zm-1 80q97 0 146 60t49 154q0 94-48 154t-147 61q-96 0-145-58t-50-157q0-62 21-110t64-76 110-28zm-76 813q-33 0-44 16t-11 39q0 21 11 37t44 16q33 0 43-16t11-37q0-23-10-39t-44-16zm169 0q-33 0-44 16t-11 39q0 21 11 37t44 16q33 0 43-16t11-37q0-23-10-39t-44-16z"/><glyph unicode="×" glyph-name="multiply" horiz-adv-x="316" d="m281 300-81-82 81-82-40-42-83 83-81-82-42 42 82 81-81 81 41 42 81-81 82 81 41-41z"/><glyph unicode="Ø" glyph-name="Oslash" horiz-adv-x="600" d="m86-24 40 58Q74 71 47 134T20 280q0 89 30 154t92 102 154 37q52 0 94-12t76-35l46 66 25-14-49-70q85-78 85-228 0-87-31-153T449 23 297-14q-85 0-146 33l-40-58-25 15zm15 304q0-57 18-103t55-74l245 354q-24 18-54 28t-69 10q-96 0-145-58t-50-157zM296 66q97 0 146 60t49 154q0 48-12 88t-39 70L198 87q42-21 98-21z"/><glyph unicode="Ù" glyph-name="Ugrave" horiz-adv-x="586" d="M292-14q-116 0-177 66T53 240v323h87V241q0-65 21-103t55-56 76-17q45 0 79 16t54 55 20 105v322h87V240q0-123-60-188T292-14zm-28 624-81 97v16h72l48-101v-12h-39z"/><glyph unicode="Ú" glyph-name="Uacute" horiz-adv-x="586" d="M292-14q-116 0-177 66T53 240v323h87V241q0-65 21-103t55-56 76-17q45 0 79 16t54 55 20 105v322h87V240q0-123-60-188T292-14zm16 624h-39v12l48 101h72v-16l-81-97z"/><glyph unicode="Û" glyph-name="Ucircumflex" horiz-adv-x="586" d="M292-14q-116 0-177 66T53 240v323h87V241q0-65 21-103t55-56 76-17q45 0 79 16t54 55 20 105v322h87V240q0-123-60-188T292-14zM162 876v8l114 106h36l113-106v-8h-75l-54 59h-4l-52-59h-78z"/><glyph unicode="Ü" glyph-name="Udieresis" horiz-adv-x="586" d="M292-14q-116 0-177 66T53 240v323h87V241q0-65 21-103t55-56 76-17q45 0 79 16t54 55 20 105v322h87V240q0-123-60-188T292-14zm-81 893q-33 0-44 16t-11 39q0 21 11 37t44 16q33 0 43-16t11-37q0-23-10-39t-44-16zm169 0q-33 0-44 16t-11 39q0 21 11 37t44 16q33 0 43-16t11-37q0-23-10-39t-44-16z"/><glyph unicode="Ý" glyph-name="Yacute" horiz-adv-x="439" d="M175 0v202L-17 563h93l142-286 141 286h93L258 203V0h-83zm55 610h-39v12l48 101h72v-16l-81-97z"/><glyph unicode="Þ" glyph-name="Thorn" horiz-adv-x="487" d="M143 0H60v563h83V461h131q93 0 143-46t51-138q0-83-52-129t-142-46H143V0zm120 392H143V165h120q60 0 95 28t35 85q0 59-34 86t-96 28z"/><glyph unicode="ß" glyph-name="germandbls" horiz-adv-x="555" d="M352-10q-59 0-96 20t-57 52-24 68h72q0-1 3-11t13-23 29-23 50-10q50 0 80 28t30 66q-1 32-20 53t-49 34-58 26-49 26-20 38q0 20 12 31t29 18 35 16 30 23 13 39q0 15-18 22t-43 9-48 3H138V0H55v563h211q24 0 55-1t62-7 50-25 20-52q0-31-13-50t-33-30-39-20-33-18-13-24q-1-18 20-28t53-22 63-27 53-43 22-73q0-46-25-80T441 9t-89-19z"/><glyph unicode="à" glyph-name="agrave" horiz-adv-x="440" d="M180-9q-57 0-92 26T37 91 20 200q0 93 38 152t122 60q45 0 73-16t43-36 22-35h2v84h85V0h-71l-14 73h-2q-6-15-22-34T252 5 180-9zm33 71q59 0 82 38t24 99q0 64-24 101t-82 37q-42 0-66-18t-34-50-11-69q0-59 25-98t86-40zm-9 391-81 97v16h72l48-101v-12h-39z"/><glyph unicode="á" glyph-name="aacute" horiz-adv-x="440" d="M180-9q-57 0-92 26T37 91 20 200q0 93 38 152t122 60q45 0 73-16t43-36 22-35h2v84h85V0h-71l-14 73h-2q-6-15-22-34T252 5 180-9zm33 71q59 0 82 38t24 99q0 64-24 101t-82 37q-42 0-66-18t-34-50-11-69q0-59 25-98t86-40zm27 391h-39v12l48 101h72v-16l-81-97z"/><glyph unicode="â" glyph-name="acircumflex" horiz-adv-x="440" d="M180-9q-57 0-92 26T37 91 20 200q0 93 38 152t122 60q45 0 73-16t43-36 22-35h2v84h85V0h-71l-14 73h-2q-6-15-22-34T252 5 180-9zm33 71q59 0 82 38t24 99q0 64-24 101t-82 37q-42 0-66-18t-34-50-11-69q0-59 25-98t86-40zM85 463v8l114 106h36l113-106v-8h-75l-54 59h-4l-52-59H85z"/><glyph unicode="ã" glyph-name="atilde" horiz-adv-x="440" d="M180-9q-57 0-92 26T37 91 20 200q0 93 38 152t122 60q45 0 73-16t43-36 22-35h2v84h85V0h-71l-14 73h-2q-6-15-22-34T252 5 180-9zm33 71q59 0 82 38t24 99q0 64-24 101t-82 37q-42 0-66-18t-34-50-11-69q0-59 25-98t86-40zm57 409q-24 0-38 8t-24 20-19 19-22 9q-17 0-20-14t-3-39H92q0 18 3 42t17 42 50 18q24 0 38-8t24-20 19-19 23-8q17 0 20 14t3 40h51q1-24-3-48t-19-40-48-16z"/><glyph unicode="ä" glyph-name="adieresis" horiz-adv-x="497" d="M148 456q-33 0-44 16t-11 39q0 21 11 37t44 17q32 0 42-16t11-38q0-22-10-38t-43-17zm169 0q-33 0-44 16t-11 39q0 21 11 37t44 17q32 0 42-16t11-38q0-22-10-38t-43-17zM201-9q-61 0-101 29T40 97 20 204q0 59 20 107t61 77 100 29q49 0 84-20t58-53v65h83V107q0-40 17-49t41 3l3-48q-2-1-18-11T419-9q-30 0-46 12t-22 30-8 37q-21-35-56-57T201-9zm22 67q62 0 88 41t27 105q0 64-27 106t-88 42q-44 0-70-20t-38-54-11-74q0-40 11-73t38-53 70-20z"/><glyph unicode="å" glyph-name="aring" horiz-adv-x="440" d="M180-9q-57 0-92 26T37 91 20 200q0 93 38 152t122 60q45 0 73-16t43-36 22-35h2v84h85V0h-71l-14 73h-2q-6-15-22-34T252 5 180-9zm33 71q59 0 82 38t24 99q0 64-24 101t-82 37q-42 0-66-18t-34-50-11-69q0-59 25-98t86-40zm2 663q-47 0-71 25t-24 68q0 44 23 70t72 26q47 0 72-26t25-70q0-40-25-66t-72-27zm-1 49q23 0 35 13t12 33q0 20-12 33t-35 14q-22 0-34-14t-12-33q0-20 12-33t34-13z"/><glyph unicode="æ" glyph-name="ae" horiz-adv-x="730" d="M147 0Q91 0 58 29t-34 77q0 45 26 69t67 38 84 22q44 10 66 17t30 15 8 23q0 32-25 49t-60 18q-23 0-44-8t-36-27-15-49H47q3 52 28 84t65 48 81 15q43 0 81-17t56-50q23 30 60 49t90 19q51 0 92-24t65-68 28-98v-26H386q0-62 31-97t90-35q44 0 71 21t37 59l80-13q-16-60-63-100T507 0q-56 0-96 20t-64 54-34 74q-3-31-22-65t-56-59-88-24zm240 252h222q0 11-4 29t-16 36-31 30-53 13q-41 0-66-18t-37-43-15-47zM177 62q39 1 67 25t43 64 16 84q-10-9-32-15t-45-13q-32-8-59-19t-43-28-16-45q1-27 21-40t48-13z"/><glyph unicode="ç" glyph-name="ccedilla" horiz-adv-x="461" d="M230-10q-58 0-104 24T54 84 27 196q1 65 28 113t72 74 105 27q58 0 99-22t66-57 29-76h-77q-8 39-38 61t-76 22q-60 0-93-38t-34-98q0-64 32-101t94-38q43 0 75 22t40 64h77q-5-42-29-78t-67-59-100-22zM120 123l27 41q12-12 33-19t44-9 38 6 15 26q-1 16-16 22t-35 3-35-17l-36 21 41 87 41-16-39-61q14 12 36 17t46 2 38-18 16-42q0-31-21-50t-55-26-70 1-68 32z"/><glyph unicode="è" glyph-name="egrave" horiz-adv-x="457" d="M226-10q-69 0-113 30T48 99 27 200q-1 59 22 107t68 76 107 28q53 0 95-23t68-66 27-101v-11q0-8 1-15H106q0-64 31-99t88-36q42 0 71 21t37 58h81q-9-64-58-106T226-10zM109 236h222q-1 11-6 29t-16 35-33 30-54 12q-41 0-64-17t-35-42-14-47zm95 217-81 97v16h72l48-101v-12h-39z"/><glyph unicode="é" glyph-name="eacute" horiz-adv-x="457" d="M226-10q-69 0-113 30T48 99 27 200q-1 59 22 107t68 76 107 28q53 0 95-23t68-66 27-101v-11q0-8 1-15H106q0-64 31-99t88-36q42 0 71 21t37 58h81q-9-64-58-106T226-10zM109 236h222q-1 11-6 29t-16 35-33 30-54 12q-41 0-64-17t-35-42-14-47zm130 217h-39v12l48 101h72v-16l-81-97z"/><glyph unicode="ê" glyph-name="ecircumflex" horiz-adv-x="457" d="M226-10q-69 0-113 30T48 99 27 200q-1 59 22 107t68 76 107 28q53 0 95-23t68-66 27-101v-11q0-8 1-15H106q0-64 31-99t88-36q42 0 71 21t37 58h81q-9-64-58-106T226-10zM109 236h222q-1 11-6 29t-16 35-33 30-54 12q-41 0-64-17t-35-42-14-47zM91 459v8l114 106h36l113-106v-8h-75l-54 59h-4l-52-59H91z"/><glyph unicode="ë" glyph-name="edieresis" horiz-adv-x="457" d="M226-10q-69 0-113 30T48 99 27 200q-1 59 22 107t68 76 107 28q53 0 95-23t68-66 27-101v-11q0-8 1-15H106q0-64 31-99t88-36q42 0 71 21t37 58h81q-9-64-58-106T226-10zM109 236h222q-1 11-6 29t-16 35-33 30-54 12q-41 0-64-17t-35-42-14-47zm29 221q-33 0-44 16t-11 39q0 21 11 37t44 16q33 0 43-16t11-37q0-23-10-39t-44-16zm169 0q-33 0-44 16t-11 39q0 21 11 37t44 16q33 0 43-16t11-37q0-23-10-39t-44-16z"/><glyph unicode="ì" glyph-name="igrave" horiz-adv-x="191" d="m79 457-82 96v17h73l48-102v-11H79zM54 0v409h83V0H54z"/><glyph unicode="í" glyph-name="iacute" horiz-adv-x="185" d="M103 459H64v11l48 102h72v-17l-81-96zM43 0v411h83V0H43z"/><glyph unicode="î" glyph-name="icircumflex" horiz-adv-x="225" d="M-20 459v8L93 573h36l114-106v-8h-76l-54 59h-4l-52-59h-77zM70 0v411h83V0H70z"/><glyph unicode="ï" glyph-name="idieresis" horiz-adv-x="243" d="M35 456q-33 0-44 16t-11 39q0 21 11 37t44 17q33 0 43-16t11-38q0-22-10-38t-44-17zm169 0q-33 0-44 16t-11 39q0 21 11 37t44 17q33 0 43-16t11-38q0-22-10-38t-44-17zM78 0v411h83V0H78z"/><glyph unicode="ð" glyph-name="eth" horiz-adv-x="505" d="M251-10q-68 0-114 29T66 93t-26 97 15 96 59 75 100 29q49 0 83-19t56-44 30-45 10-19h1q-9 52-42 102t-73 91l-56-34-31 29 56 34q-46 40-77 52l57 69q30-13 56-30t48-40l68 41 31-29-70-43q49-56 75-125t28-137-19-126-70-92-124-35zm143 178q-1 49-21 83t-53 52-69 22-67-10-49-44-15-77q3-50 28-81t63-45 76-8 68 33 39 75z"/><glyph unicode="ñ" glyph-name="ntilde" d="M38 0v408h71l14-94h2q1 4 8 19t23 32 43 31 68 13q54 0 84-20t44-53 17-69 4-67V0h-81v201q0 38-8 68t-29 48-63 18q-42 0-67-20t-35-52-10-68V0H38zm255 471q-24 0-38 8t-24 20-19 19-22 9q-17 0-20-14t-3-39h-52q0 18 3 42t17 42 50 18q24 0 38-8t24-20 19-19 23-8q17 0 20 14t3 40h51q1-24-3-48t-19-40-48-16z"/><glyph unicode="ò" glyph-name="ograve" horiz-adv-x="465" d="M227-10Q125-10 75 49T25 199q-1 92 50 151t152 60q98 0 149-58t51-153q0-59-21-106t-66-75-113-28zm0 71q48 0 73 21t36 53 10 67q0 34-10 66t-35 54-74 22q-49 0-75-21t-36-54-10-67q0-34 10-66t36-54 75-21zm-23 392-81 97v16h72l48-101v-12h-39z"/><glyph unicode="ó" glyph-name="oacute" horiz-adv-x="465" d="M227-10Q125-10 75 49T25 199q-1 92 50 151t152 60q98 0 149-58t51-153q0-59-21-106t-66-75-113-28zm0 71q48 0 73 21t36 53 10 67q0 34-10 66t-35 54-74 22q-49 0-75-21t-36-54-10-67q0-34 10-66t36-54 75-21zm12 392h-39v12l48 101h72v-16l-81-97z"/><glyph unicode="ô" glyph-name="ocircumflex" horiz-adv-x="465" d="M227-10Q125-10 75 49T25 199q-1 92 50 151t152 60q98 0 149-58t51-153q0-59-21-106t-66-75-113-28zm0 71q48 0 73 21t36 53 10 67q0 34-10 66t-35 54-74 22q-49 0-75-21t-36-54-10-67q0-34 10-66t36-54 75-21zM91 459v8l114 106h36l113-106v-8h-75l-54 59h-4l-52-59H91z"/><glyph unicode="õ" glyph-name="otilde" horiz-adv-x="465" d="M227-10Q125-10 75 49T25 199q-1 92 50 151t152 60q98 0 149-58t51-153q0-59-21-106t-66-75-113-28zm0 71q48 0 73 21t36 53 10 67q0 34-10 66t-35 54-74 22q-49 0-75-21t-36-54-10-67q0-34 10-66t36-54 75-21zm52 410q-24 0-38 8t-24 20-19 19-22 9q-17 0-20-14t-3-39h-52q0 18 3 42t17 42 50 18q24 0 38-8t24-20 19-19 23-8q17 0 20 14t3 40h51q1-24-3-48t-19-40-48-16z"/><glyph unicode="ö" glyph-name="odieresis" horiz-adv-x="465" d="M227-10Q125-10 75 49T25 199q-1 92 50 151t152 60q98 0 149-58t51-153q0-59-21-106t-66-75-113-28zm0 71q48 0 73 21t36 53 10 67q0 34-10 66t-35 54-74 22q-49 0-75-21t-36-54-10-67q0-34 10-66t36-54 75-21zm-89 396q-33 0-44 16t-11 39q0 21 11 37t44 16q33 0 43-16t11-37q0-23-10-39t-44-16zm169 0q-33 0-44 16t-11 39q0 21 11 37t44 16q33 0 43-16t11-37q0-23-10-39t-44-16z"/><glyph unicode="÷" glyph-name="divide" horiz-adv-x="317" d="M151 291q-18 0-27 10t-9 28q-1 16 8 27t28 11q18 0 27-10t10-28q0-17-9-27t-28-11zM40 195v60h222v-60H40zM151 81q-18 0-27 11t-9 27q-1 17 8 27t28 11q18 0 27-10t10-28q0-16-9-27t-28-11z"/><glyph unicode="ø" glyph-name="oslash" horiz-adv-x="458" d="m60-24 34 55q-34 28-51 71t-18 97q-1 92 50 151t151 60q54 0 95-19l35 56 26-14-35-56q39-27 59-72t21-106q0-59-21-106t-66-75-113-28q-63 0-108 25L85-39 60-24zm46 226q0-28 6-56t24-48l148 234q-24 12-57 12-49 0-75-21t-36-54-10-67zM227 61q48 0 73 21t36 53 10 67q0 31-8 62t-30 51L159 78q27-17 68-17z"/><glyph unicode="ù" glyph-name="ugrave" horiz-adv-x="453" d="M185-10q-52 0-82 19T58 61t-19 68-5 70v210h82V199q0-36 7-67t28-49 66-19q42 0 65 19t32 49 11 63l1 214h85V0h-71l-14 85h-2q-4-13-19-35T261 9t-76-19zm18 467-81 97v16h72l48-101v-12h-39z"/><glyph unicode="ú" glyph-name="uacute" horiz-adv-x="453" d="M185-10q-52 0-82 19T58 61t-19 68-5 70v210h82V199q0-36 7-67t28-49 66-19q42 0 65 19t32 49 11 63l1 214h85V0h-71l-14 85h-2q-4-13-19-35T261 9t-76-19zm55 469h-39v12l48 101h72v-16l-81-97z"/><glyph unicode="û" glyph-name="ucircumflex" horiz-adv-x="453" d="M185-10q-52 0-82 19T58 61t-19 68-5 70v210h82V199q0-36 7-67t28-49 66-19q42 0 65 19t32 49 11 63l1 214h85V0h-71l-14 85h-2q-4-13-19-35T261 9t-76-19zM89 459v8l114 106h36l113-106v-8h-75l-54 59h-4l-52-59H89z"/><glyph unicode="ü" glyph-name="udieresis" horiz-adv-x="453" d="M185-10q-52 0-82 19T58 61t-19 68-5 70v210h82V199q0-36 7-67t28-49 66-19q42 0 65 19t32 49 11 63l1 214h85V0h-71l-14 85h-2q-4-13-19-35T261 9t-76-19zm-49 467q-33 0-44 16t-11 39q0 21 11 37t44 16q33 0 43-16t11-37q0-23-10-39t-44-16zm169 0q-33 0-44 16t-11 39q0 21 11 37t44 16q33 0 43-16t11-37q0-23-10-39t-44-16z"/><glyph unicode="ý" glyph-name="yacute" horiz-adv-x="424" d="M-2-186v65h59q21 0 35 9t34 51l35 77L1 409h86l115-307 123 307h87L202-70q-22-51-40-76t-40-32-55-8H-2zm217 645h-39v12l48 101h72v-16l-81-97z"/><glyph unicode="þ" glyph-name="thorn" horiz-adv-x="485" d="M50-199v762h86V296q1 4 9 21t25 39 45 37 70 16q57 0 93-30t55-77 18-99q0-53-17-102t-54-80-95-31q-38 0-65 14t-45 33-27 35-12 20v-291H50zM249 60q42 0 66 20t34 51 11 67q0 34-11 65t-37 52-66 21q-47 0-75-29t-35-77v-65q7-47 35-76t78-29zM134 198q0-16 2-30v60q-2-15-2-30zm2-105q-1 0 0 0z"/><glyph unicode="ÿ" glyph-name="ydieresis" horiz-adv-x="424" d="M-2-186v65h59q21 0 35 9t34 51l35 77L1 409h86l115-307 123 307h87L202-70q-22-51-40-76t-40-32-55-8H-2zm127 643q-33 0-44 16t-11 39q0 21 11 37t44 16q33 0 43-16t11-37q0-23-10-39t-44-16zm169 0q-33 0-44 16t-11 39q0 21 11 37t44 16q33 0 43-16t11-37q0-23-10-39t-44-16z"/><glyph unicode="–" glyph-name="endash" horiz-adv-x="417" d="M40 195v60h322v-60H40z"/><glyph unicode="—" glyph-name="emdash" horiz-adv-x="557" d="M40 195v60h462v-60H40z"/><glyph unicode="‘" glyph-name="quoteleft" horiz-adv-x="221" d="M87 349q-28 0-38 14t-11 36v1q0 6 1 24t8 42 19 46 37 36 58 15v-71q-37 0-55-13t-27-30h6q29 0 40-14t11-36q0-21-11-35t-38-15z"/><glyph unicode="’" glyph-name="quoteright" horiz-adv-x="196" d="M30 349v71q37 0 55 13t27 30h-6q-28 0-39 14t-11 36q0 21 10 35t39 15q27 0 37-14t11-36h1q0-1-1-1h1-1q0-7-1-25t-8-42-19-45-37-37-58-14z"/><glyph unicode="‚" glyph-name="quotesinglbase" horiz-adv-x="221" d="M48-87v71q37 0 55 13t26 30h-5q-29 0-40 14T73 77q0 21 11 35t38 15q27 0 38-14t11-36v-1q0-7-1-25t-8-42-20-45-36-37-58-14z"/><glyph unicode="“" glyph-name="quotedblleft" horiz-adv-x="360" d="M38 349v71q37 0 55 13t26 30h-5q-29 0-40 14t-11 36q0 21 11 35t38 15q27 0 38-14t11-36v-1q0-7-1-25t-8-42-20-45-36-37-58-14zm143 0v71q37 0 55 13t27 30h-6q-28 0-39 14t-11 36q0 21 10 35t39 15q27 0 37-14t11-36h1q0-1-1-1h1-1q0-7-1-25t-8-42-19-45-37-37-58-14z"/><glyph unicode="”" glyph-name="quotedblright" horiz-adv-x="360" d="M230 349q-27 0-38 14t-11 36v1q0 6 1 24t8 42 20 46 36 36 59 15v-71q-38 0-56-13t-26-30h6q28 0 39-14t11-36q0-21-11-35t-38-15zm-143 0q-28 0-38 14t-11 36v1q0 6 1 24t8 42 19 46 37 36 58 15v-71q-37 0-55-13t-27-30h6q29 0 40-14t11-36q0-21-11-35t-38-15z"/><glyph unicode="„" glyph-name="quotedblbase" horiz-adv-x="348" d="M38-87v71q37 0 55 13t26 30h-5q-29 0-40 14T63 77q0 21 11 35t38 15q27 0 38-14t11-36v-1q0-7-1-25t-8-42-20-45-36-37-58-14zm143 0v71q37 0 55 13t27 30h-6q-28 0-39 14t-11 36q0 21 10 35t39 15q27 0 37-14t11-36h1q0-1-1-1h1-1q0-7-1-25t-8-42-19-45-37-37-58-14z"/><glyph unicode="•" glyph-name="bullet" horiz-adv-x="244" d="M110 193q-39 0-52 19t-13 46q0 25 13 44t52 19q39 0 51-19t13-44q0-27-12-46t-52-19z"/><glyph unicode="‹" glyph-name="guilsinglleft" horiz-adv-x="401" d="M361 395v-68l-254-96 254-96V65L40 231l321 164z"/><glyph unicode="›" glyph-name="guilsinglright" horiz-adv-x="408" d="m43 395 320-164L43 65v70l253 96-253 96v68z"/></font>
</defs>
</svg>
