<svg xmlns="http://www.w3.org/2000/svg"><defs><font id="DarkerGrotesque" horiz-adv-x="466"><font-face font-family="Darker Grotesque" ascent="1060" descent="-296" alphabetic="0"/><glyph glyph-name="space" horiz-adv-x="218"/><glyph unicode="!" glyph-name="exclam" horiz-adv-x="222" d="M84 166q-9 95-18 168T54 459t12 77 52 27q37 0 51-27t12-78-11-124-18-168l-9 2q-9 2-25 2-12 0-23-2t-11-2zM119-9Q83-9 71 8T59 52q0 23 12 40t48 18q34 0 46-17t13-41q0-26-12-43T119-9z"/><glyph unicode="&quot;" glyph-name="quotedbl" horiz-adv-x="348" d="M38 347v67h24q26 0 35 8t10 27q-37-1-52 15t-15 42q0 24 12 40t46 17q25 0 40-15t15-63q0-56-20-97t-70-41H38zm165 0v67h24q26 0 35 8t10 27q-37-1-52 15t-15 42q0 24 12 40t46 17q25 0 40-15t15-63q0-56-20-97t-70-41h-25z"/><glyph unicode="#" glyph-name="numbersign" horiz-adv-x="690" d="m75 0 58 141H23v87h146l42 104H78v87h162l46 144h96l-59-144h118l46 144h96l-59-144h107v-87H489l-42-104h132v-87H418L373 0h-97l58 141H216L170 0H75zm169 229v-1h126l42 104H287l-43-103z"/><glyph unicode="$" glyph-name="dollar" horiz-adv-x="552" d="m241-109 6 100q-47 6-91 28T82 81 45 184l101 17q0-3 3-21t16-42 43-41 80-18q55 0 83 23t28 47q1 28-18 45t-49 27-68 20-73 21-67 31-47 50-14 80q3 61 51 100t133 48l-6 101h102l-6-103q47-8 85-31t60-63 22-95l-97-14q0 40-15 62t-39 34-47 14-36 3q-38 0-69-17t-33-51q0-29 19-46t50-27 69-19 74-20 67-30 48-50 15-80q-4-61-53-98T337-7l6-102H241z"/><glyph unicode="%" glyph-name="percent" horiz-adv-x="609" d="M135 334q-56 0-82 32t-26 86q0 55 25 88t83 33q57 0 83-33t27-88q0-51-26-84t-84-34zM128 0 58 50l234 251 191 262 70-49-227-241L128 0zm6 398q25 0 35 16t10 40q0 25-10 41t-35 17q-24 0-34-16t-11-42q0-24 10-40t35-16zM473-10q-56 0-81 32t-26 89q0 53 25 85t82 33q57 0 83-32t26-86q0-54-26-87t-83-34zm-2 64q26 0 36 16t11 40q0 25-10 41t-37 17q-24 0-34-16t-11-42q0-24 10-40t35-16z"/><glyph unicode="&amp;" glyph-name="ampersand" horiz-adv-x="647" d="M593-2q-70 29-136 71-43-39-96-58T252-9 151 10 77 66t-29 93q0 41 16 68t39 45 43 27 30 14q-5 8-20 25t-28 45-13 61q0 42 22 70t58 42 75 15 75-12 58-41 23-70q0-35-17-62t-40-45-42-29-23-12q11-14 43-45t75-65q8 11 17 33t10 48-20 44l85 56q6-7 16-30t17-57 0-73-34-77q25-16 51-30t66-31L593-2zM248 347q13 7 34 19t38 30 19 37q2 23-11 37t-33 20-40 2-35-19-13-39q1-39 41-87zm130-221q-42 32-79 67t-68 73q-31-16-56-36t-26-59q0-37 24-60t62-29 76 4 67 40z"/><glyph unicode="'" glyph-name="quotesingle" horiz-adv-x="214" d="M58 347v67h24q26 0 35 8t10 27q-37-1-52 15t-15 42q0 24 12 40t46 17q25 0 40-15t15-63q0-56-20-97t-70-41H58z"/><glyph unicode="(" glyph-name="parenleft" horiz-adv-x="327" d="m233-199-19 16q-19 16-48 47t-57 80T61 56 42 200q0 81 19 145t47 113 57 80 48 49 20 16l79-79q-4-3-25-16t-51-39-59-63-48-89-19-117q0-67 20-119t51-89 60-62 50-36 21-12l-79-81z"/><glyph unicode=")" glyph-name="parenright" horiz-adv-x="317" d="M84-199 5-118l20 12q20 12 51 36t60 61 50 90 21 119q0 66-19 117t-48 88-58 63-51 39-26 17l79 79 19-16q19-16 48-48t57-81 48-112 19-146q0-80-19-144T209-56t-57-79-48-48-20-16z"/><glyph unicode="*" glyph-name="asterisk" horiz-adv-x="382" d="m354 412-126-17 92-87-75-55-54 114-54-114-75 55 93 87-127 17 29 87 111-62-22 126h92l-24-126 111 62 29-87z"/><glyph unicode="+" glyph-name="plus" horiz-adv-x="363" d="M146 81v108H38v71h108v108h72V260h107v-71H218V81h-72z"/><glyph unicode="," glyph-name="comma" horiz-adv-x="225" d="M55-102v67h24q26 0 36 8t10 27Q87-2 72 14T57 57q0 24 13 40t45 17q26 0 40-15t15-63q0-57-20-97t-70-41H55z"/><glyph unicode="-" glyph-name="hyphen" horiz-adv-x="317" d="M40 189v71h222v-71H40z"/><glyph unicode="." glyph-name="period" horiz-adv-x="210" d="M96 0Q59 0 47 18T35 62q0 24 12 42t49 18q34 0 46-18t13-42q0-26-12-44T96 0z"/><glyph unicode="/" glyph-name="slash" horiz-adv-x="386" d="m25 0 254 563h97L122 0H25z"/><glyph unicode="0" glyph-name="zero" horiz-adv-x="545" d="M272-14Q148-14 88 65T28 280q0 89 25 154t80 102 139 37q126 0 185-79t59-214q0-87-26-153T410 23 272-14zm0 85q77 0 113 53t36 156q0 102-35 155t-114 53q-76 0-112-51t-37-157q0-102 35-155t114-54z"/><glyph unicode="1" glyph-name="one" horiz-adv-x="377" d="M335 88V0H66v88h92v352q-8-36-26-55t-38-28-36-9-21-2v111q6-1 26 0t43 12 42 32 20 62h90V88h77z"/><glyph unicode="2" glyph-name="two" horiz-adv-x="519" d="M42 0v85l25 13q25 13 65 37t82 54 79 66 55 74q23 46 15 81t-38 54-69 20q-54 0-86-36t-22-111l-95 13q-7 69 19 118t78 75 117 27q54 0 97-20t69-55 31-80-21-96q-19-38-52-72t-72-63-75-48-64-33-36-15h330V0H42z"/><glyph unicode="3" glyph-name="three" horiz-adv-x="516" d="M267-10q-67 0-120 23T64 82 33 198l98 14q2-65 40-99t98-35q51 0 84 27t34 70q0 33-17 51t-42 27-51 9h-67v53h69q41 0 70 17t30 56q0 46-32 73t-86 27q-43 0-70-18t-40-44-15-50l-91 15q0 16 10 45t33 61 65 54 105 22q101 0 157-43t56-118q0-49-27-84t-81-42q53-7 86-43t33-90q0-51-27-87t-77-56-111-20z"/><glyph unicode="4" glyph-name="four" horiz-adv-x="524" d="M30 110v88q51 22 91 63t69 94 44 106 15 102h110q0-64-27-132t-79-128-120-105h183v83h101v-83h71v-88h-71V0H316v110H30z"/><glyph unicode="5" glyph-name="five" horiz-adv-x="524" d="M261-10q-67 0-113 23T76 72t-34 79l101 14q1-7 7-21t20-30 36-27 58-11q56 0 86 33t33 74q3 29-9 57t-39 46-68 18q-38 0-60-13t-33-28-11-15L58 266l31 297h368v-88H160l-19-178 8 11q8 11 27 27t48 26 72 12q67 0 110-28t62-72 16-92q-4-48-31-91t-76-72-116-28z"/><glyph unicode="6" glyph-name="six" horiz-adv-x="546" d="M280-10q-81 0-133 38T69 130 43 272q0 58 16 112t48 96 79 68 110 25q61 0 99-18t58-43 29-42 8-19l-101-19-8 13q-8 13-30 26t-61 13q-38 0-75-26t-58-80-13-141q1 10 10 31t30 42 54 37 80 14q66 0 108-27t61-69 16-90-30-89-75-69-118-27zm6 85q47 0 76 22t40 54 3 66-35 57-74 25q-43 1-74-18t-47-50-17-65q10-46 47-68t81-23z"/><glyph unicode="7" glyph-name="seven" horiz-adv-x="513" d="M213 0H111q0 115 35 207t95 160 136 107H44v89h428v-87q-24-13-57-36t-69-60-65-89-49-125T213 0z"/><glyph unicode="8" glyph-name="eight" horiz-adv-x="560" d="M278-11q-68 0-122 19T71 64t-31 90q0 55 38 95t103 49q-46 8-69 31t-32 49-8 44q0 45 26 79t72 53 108 19q95 0 151-42t56-109q0-18-7-44t-31-49-71-31q67-10 105-48t38-96q0-54-32-91T401 8 278-11zm0 333q54 0 85 20t32 60q0 46-32 69t-85 23q-52 0-83-23t-32-69q0-40 32-60t83-20zm1-253q64 0 102 28t38 74q0 52-38 77t-102 25q-65 0-102-25t-38-77q0-46 37-74t103-28z"/><glyph unicode="9" glyph-name="nine" horiz-adv-x="547" d="M261-10q-53 0-90 13t-61 31-37 38-18 32-6 13l100 22 10-14q10-14 34-29t68-15q40 0 72 24t51 76 15 140q-1-10-11-30t-30-41-52-35-76-15q-66 0-109 26t-64 69-17 89 28 90 74 69 120 27q88 0 141-41t76-107 21-144q-2-78-26-143T399 30 261-10zm-8 271q59 0 94 36t39 90q-12 52-46 76t-78 24q-48 0-77-22t-39-56-3-67 35-57 75-24z"/><glyph unicode=":" glyph-name="colon" horiz-adv-x="230" d="M115 259q-35 0-47 17t-13 44q0 25 12 42t48 18q35 0 47-18t12-42q0-25-12-43t-47-18zm0-227q-36 0-48 18T55 93q0 24 12 42t48 18q35 0 47-18t12-42q0-25-12-43t-47-18z"/><glyph unicode=";" glyph-name="semicolon" horiz-adv-x="234" d="M122 291q-36 0-48 18t-12 43q0 25 12 42t48 18q35 0 47-17t12-43q0-26-12-43t-47-18zM64-102v67h24q26 0 36 8t10 27Q96-2 81 14T66 57q0 24 13 40t45 17q26 0 40-15t15-63q0-57-20-97t-70-41H64z"/><glyph unicode="&lt;" glyph-name="less" horiz-adv-x="422" d="M372 406v-81l-252-92 252-91V60L43 233l329 173z"/><glyph unicode="=" glyph-name="equal" horiz-adv-x="416" d="M40 259v68h321v-68H40zm0-141v68h321v-68H40z"/><glyph unicode="&gt;" glyph-name="greater" horiz-adv-x="417" d="m43 406 329-173L43 60v82l252 91-252 92v81z"/><glyph unicode="?" glyph-name="question" horiz-adv-x="448" d="M262 168h-92q0 29 14 53t36 47 44 43 37 44 17 49q1 34-20 56t-63 22q-40 0-59-19t-24-46-6-45H50q-8 46 7 91t58 76 114 31q54 0 97-19t68-53 26-81q0-38-16-66t-39-49-47-42-40-42-16-50zM215-9q-35 0-47 18t-12 42q0 25 12 42t47 17q35 0 47-17t12-42q0-26-12-43T215-9z"/><glyph unicode="@" glyph-name="at" horiz-adv-x="821" d="M376 41q-63 0-92 44t-20 109q7 43 29 77t54 53 71 20q39 0 66-17t39-47l6 51h77l-31-167q-3-19-3-38t6-33 28-13q36 0 60 23t36 61 9 80-23 80q-26 50-73 80t-105 43-116 5-105-35q-59-34-95-95t-41-138q-4-69 22-120t74-83 111-42 132 1 138 48l51-89q-61-33-131-50t-143-16-137 21-117 62T73 20 45 170q2 109 55 193t142 128q53 26 114 35t124 3 117-30 97-62 61-95q19-50 15-104t-29-100-66-74-99-29q-46 0-63 22t-15 51q-22-31-53-49t-69-18zm26 57q38 0 57 18t27 41 10 37q7 41-6 67t-56 27q-37 0-64-26t-34-70q-6-41 10-67t56-27z"/><glyph unicode="A" glyph-name="A" horiz-adv-x="566" d="m19 0 180 563h167L551 0H442l-48 159H175L127 0H19zm265 520-85-282h171l-86 282z"/><glyph unicode="B" glyph-name="B" horiz-adv-x="560" d="M55 0v563h223q31 0 68-4t73-18 57-44 23-83q0-32-12-59t-46-44-96-21v-3q72-2 111-20t54-49 15-67q0-54-24-84t-62-45-79-18-77-4H55zm100 329h111q35 0 65 4t49 19 18 51q0 37-18 53t-49 20-65 4H155V329zm1-247h119q39 0 72 5t53 22 20 56q0 39-21 57t-55 24-75 5H156V82z"/><glyph unicode="C" glyph-name="C" horiz-adv-x="602" d="M301-10q-79 0-143 32T57 119 19 279q1 94 38 160t101 100 146 34q78 0 133-28t88-76 44-108H464q-7 44-32 69t-60 36-68 11q-89 0-136-50t-48-141q0-97 46-149t136-52q37 0 72 11t60 38 32 72h106q-11-62-44-110t-90-77-137-29z"/><glyph unicode="D" glyph-name="D" horiz-adv-x="606" d="M570 282q0-111-43-172T404 24 218 0H63v563h155q107 0 186-31t122-94 44-156zM164 84h83q66 0 114 15t74 59 26 125q0 97-57 144t-157 48h-83V84z"/><glyph unicode="E" glyph-name="E" horiz-adv-x="501" d="M154 82h311V0H53v563h402v-88H154V327h231v-84H154V82z"/><glyph unicode="F" glyph-name="F" horiz-adv-x="474" d="M165 0H65v563h401v-88H165V337h230v-83H165V0z"/><glyph unicode="G" glyph-name="G" horiz-adv-x="623" d="M290-11q-82 0-143 33t-95 97-31 159q1 95 37 161t101 100 148 34q115 0 178-50t84-145l-98-14q-15 63-61 88t-103 25q-96 0-140-52t-46-139q0-96 51-147t146-52q58 0 105 27t61 89H360v75h220V0h-69l-23 98h-2q-10-25-34-50T387 6t-97-17z"/><glyph unicode="H" glyph-name="H" horiz-adv-x="588" d="M161 0H58v563h103V326h267v237h102V0H428v247H161V0z"/><glyph unicode="I" glyph-name="I" horiz-adv-x="378" d="M311 87V0H60v87h76v388H60v88h251v-88h-74V87h74z"/><glyph unicode="J" glyph-name="J" horiz-adv-x="470" d="M224-10q-84 0-135 45T38 171h96q0-23 7-44t27-35 53-14q44 0 64 25t21 92v289H192v79h216V211q0-68-14-118t-55-76-115-27z"/><glyph unicode="K" glyph-name="K" horiz-adv-x="578" d="M65 0v563h102V297l249 266h133v-12L326 336 561 12V0H444L252 265l-85-82V0H65z"/><glyph unicode="L" glyph-name="L" horiz-adv-x="470" d="M63 0v563h102V87h278V0H63z"/><glyph unicode="M" glyph-name="M" horiz-adv-x="734" d="M58 0v563h178L368 44h2l131 519h177V0H572l7 517h-1L443 0H293L160 517h-2l6-517H58z"/><glyph unicode="N" glyph-name="N" horiz-adv-x="606" d="M443 563h106V0H355L162 518h-2V0H55v563h180L441 45h2v518z"/><glyph unicode="O" glyph-name="O" horiz-adv-x="612" d="M298-14Q162-14 90 65T18 280q0 89 31 154t93 102 156 37q138 0 209-79t71-214q0-87-32-153T452 23 298-14zm-1 98q90 0 135 56t46 140q0 57-20 101t-60 70-101 26q-88 0-134-54t-46-143q0-55 19-99t60-71 101-26z"/><glyph unicode="P" glyph-name="P" horiz-adv-x="498" d="M159 0H57v563h226q94 0 146-47t52-142q0-83-53-130t-145-47H159V0zm110 480H159V272h110q54 0 87 26t33 78q0 53-32 78t-88 26z"/><glyph unicode="Q" glyph-name="Q" horiz-adv-x="624" d="M386-128q-24 0-49 5t-43 30-21 81Q155 0 94 78T33 280q0 88 31 154t93 102 157 37q92 0 154-36t94-102 32-154q0-118-57-196T369-10q1-22 8-31t38-9q5 0 20 4t29 5l1-77q-2 0-20-2t-37-5-22-3zM313 86q88 0 132 53t45 144q0 90-44 144t-133 54q-87 0-132-52t-45-145q0-90 43-144t134-54z"/><glyph unicode="R" glyph-name="R" horiz-adv-x="555" d="M56 0v563h207q109 0 170-36t61-129q0-69-33-111t-95-43q35 0 52-15t25-39 10-48 7-44 18-28 43 3V14Q502-2 476-7t-51 3-42 35-17 75q0 44-5 70t-25 40-62 17-116 0V0H56zm102 307h101q49 0 81 4t47 22 16 57q0 43-19 62t-55 23-90 5h-81V307z"/><glyph unicode="S" glyph-name="S" horiz-adv-x="555" d="M276-11q-46 0-90 11t-81 34-57 60-22 91h103q0-5 4-21t18-36 46-33 86-14q59 0 87 22t29 47q0 28-19 44t-52 27-71 20-77 20-70 31-50 51-16 79q5 71 68 111t167 40q60 0 111-21t83-64 32-109h-99q0 31-14 50t-35 30-46 14-43 4q-50 0-82-17t-33-50q-1-28 19-45t53-27 72-18 78-19 71-30 50-50 15-82q-4-71-69-110T276-11z"/><glyph unicode="T" glyph-name="T" horiz-adv-x="465" d="M10 475v88h435v-88H278V0H176v475H10z"/><glyph unicode="U" glyph-name="U" horiz-adv-x="595" d="M298-14q-120 0-182 66T53 240v323h109V241q0-62 20-96t51-48 65-14q38 0 69 13t49 48 19 97v322h108V240q0-123-61-188T298-14z"/><glyph unicode="V" glyph-name="V" horiz-adv-x="556" d="M437 563h112L363 0H193L7 563h111L277 43l160 520z"/><glyph unicode="W" glyph-name="W" horiz-adv-x="820" d="M692 563h108L665 0H501l-94 432L314 0H149L13 563h109L231 43l122 518-1 2h109L583 43l109 520z"/><glyph unicode="X" glyph-name="X" horiz-adv-x="570" d="m21 0 200 297L37 563h121l130-205 131 205h119L357 297 557 0H438L288 233 139 0H21z"/><glyph unicode="Y" glyph-name="Y" horiz-adv-x="447" d="M171 0v199L-21 563H93l131-275 129 275h114L272 200V0H171z"/><glyph unicode="Z" glyph-name="Z" horiz-adv-x="564" d="M43 0v86l343 389H69v88h448v-87L179 88h336V0H43z"/><glyph unicode="[" glyph-name="bracketleft" horiz-adv-x="289" d="M272-199H35v802h237v-95H135v-612h137v-95z"/><glyph unicode="\" glyph-name="backslash" horiz-adv-x="366" d="M249 0-5 563h97L346 0h-97z"/><glyph unicode="]" glyph-name="bracketright" horiz-adv-x="295" d="M35-199v95h140v612H38v95h237v-802H35z"/><glyph unicode="^" glyph-name="asciicircum" horiz-adv-x="442" d="M28 320v26l193 216 192-216v-26h-96l-95 159h-2l-95-159H28z"/><glyph unicode="_" glyph-name="underscore" horiz-adv-x="570" d="M33 0v71h482V0H33z"/><glyph unicode="`" glyph-name="grave" horiz-adv-x="600" d="m120 632-85 95v18h86l45-100v-13h-46z"/><glyph unicode="a" glyph-name="a" horiz-adv-x="453" d="M178-10Q93-10 57 48T21 200q0 95 36 153t121 59q48 0 76-16t42-37 17-30h2v82h105V0h-88l-17 67h-2q-3-9-17-27T253 6t-75-16zm42 86q56 0 75 35t20 88q0 55-20 89t-75 34q-39 0-60-17t-30-44-9-62q0-34 8-62t30-44 61-17z"/><glyph unicode="b" glyph-name="b" horiz-adv-x="494" d="M288-10q-37 0-63 11t-42 28-24 29-9 15h-2L131 0H43v563h105V321h2q1 3 8 17t22 31 42 29 66 13q90 0 130-58t40-155q0-94-39-151T288-10zm-33 86q41 0 63 17t31 46 9 60q0 31-9 58t-32 45-65 18q-56 0-79-34t-24-87q0-54 24-88t82-35z"/><glyph unicode="c" glyph-name="c" horiz-adv-x="469" d="M235-10q-58 0-105 23T55 83 27 197q2 67 29 115t74 74 107 26q61 0 104-23t68-61 27-78h-94q-15 74-102 74-54 0-83-33t-30-86q0-58 28-92t85-35q38 0 66 20t36 59h94q-3-43-27-81t-68-62-106-24z"/><glyph unicode="d" glyph-name="d" horiz-adv-x="505" d="M212-10q-92 0-131 57T42 198q0 97 40 155t130 58q39 0 65-12t42-30 23-31 8-17h2v242h105V0h-88l-17 73h-2q-1-2-8-15t-24-29-43-27-63-12zm33 86q57 0 81 34t25 89q0 52-23 86t-80 35q-41 0-64-17t-33-45-9-59q0-31 8-59t31-46 64-18z"/><glyph unicode="e" glyph-name="e" horiz-adv-x="462" d="M229-10q-71 0-115 30T48 98 25 199q-1 62 23 110t70 76 108 28q55 0 98-24t70-67 27-103v-26H122q0-57 28-87t77-31q38 0 63 19t31 50h99q-7-65-56-109T229-10zM125 239h194q-1 7-4 22t-13 31-29 27-49 11q-40 0-60-16t-29-38-10-37z"/><glyph unicode="f" glyph-name="f" horiz-adv-x="288" d="M73-1v340H17v72h56v67q0 54 24 78t74 24h108v-79H175v-90h101v-72H175V-1H73z"/><glyph unicode="g" glyph-name="g" horiz-adv-x="475" d="M152-183v96h180V73h-2q-1-2-8-15t-24-29-41-27-64-12q-91 0-131 58T22 199q0 97 40 154t131 58q40 0 66-12t41-30 21-31 8-17h2l1 90h105V-35q0-82-32-115t-101-33H152zm73 259q56 0 81 34t25 89q0 52-24 86t-80 35q-41 0-64-17t-32-45-10-59q0-31 8-59t31-46 65-18z"/><glyph unicode="h" glyph-name="h" horiz-adv-x="479" d="M43 0v563h105V322h2q1 3 7 16t21 31 40 29 65 13q54 0 85-22t45-57 17-70 4-63V0h-99v200q0 33-6 60t-26 44-58 17q-39 0-60-18t-29-46-8-61V0H43z"/><glyph unicode="i" glyph-name="i" horiz-adv-x="207" d="M105 456q-33-1-43 15t-11 40q0 22 11 38t43 16q31 0 41-16t11-38q0-23-10-38t-42-17zM53 0v411h102V0H53z"/><glyph unicode="j" glyph-name="j" horiz-adv-x="236" d="M133 442q-34 0-45 16t-12 41q0 24 11 40t46 16q32 0 43-16t11-40q0-24-11-40t-43-17zm-53-31h102V-81q0-54-24-78t-74-24H12v79h68v515z"/><glyph unicode="k" glyph-name="k" horiz-adv-x="448" d="M144 0H42v563h102V218l175 195h125L276 239 447 0H325L204 165l-60-62V0z"/><glyph unicode="l" glyph-name="l" horiz-adv-x="196" d="M48 0v563h100V0H48z"/><glyph unicode="m" glyph-name="m" horiz-adv-x="660" d="M37 0v411h89l1-89h2q1 4 8 17t21 30 37 29 57 13q50 0 75-26t36-63h2q1 4 8 17t23 30 40 29 59 13q39 0 63-16t37-42 19-55 6-55 1-44V0h-86v200q0 15-1 35t-8 40-23 33-44 13q-35 0-53-18t-25-47-7-60V0h-86v200q0 15-1 35t-8 40-23 33-44 13q-35 0-53-18t-25-47-7-60V0H37z"/><glyph unicode="n" glyph-name="n" d="M37 0v409h87l17-87h2q1 3 7 16t22 31 42 29 67 13q55 0 85-22t43-55 16-70 3-65V0H328v200q0 33-6 60t-25 44-58 17q-40 0-61-18t-29-46-8-61V0H37z"/><glyph unicode="o" glyph-name="o" horiz-adv-x="472" d="M231-10q-70 0-116 27T46 91 23 200q-1 92 51 151t157 60q101 0 153-58t53-153q0-59-22-107t-68-75-116-28zm0 86q44 0 67 19t32 48 8 60q0 31-8 61t-31 49-68 19q-45 0-68-19t-32-49-9-61q0-30 8-59t32-49 69-19z"/><glyph unicode="p" glyph-name="p" horiz-adv-x="492" d="M292-10q-38 0-63 11t-41 28-23 29-9 15h-2v-256H49v594h89l17-90h2q1 3 7 17t21 31 41 29 65 13q92 0 132-59t40-154q0-95-41-151T292-10zm-31 86q42 0 64 17t31 46 9 60q0 31-9 58t-33 45-64 18q-56 0-80-34t-24-87q0-54 25-88t81-35z"/><glyph unicode="q" glyph-name="q" horiz-adv-x="492" d="M201-10q-91 0-131 56T29 198q0 96 40 154t132 59q39 0 65-12t41-30 21-31 8-17h2l16 90h89v-594H338V73h-2q-1-2-8-15t-23-29-41-27-63-12zm30 86q56 0 81 34t25 89q0 52-23 86t-80 35q-42 0-65-17t-32-45-10-59q0-31 9-59t31-46 64-18z"/><glyph unicode="r" glyph-name="r" horiz-adv-x="338" d="M42 0v411h95l7-114q6 26 23 52t49 44 82 18h15V297h-15q-86 0-120-27t-34-93V0H42z"/><glyph unicode="s" glyph-name="s" horiz-adv-x="415" d="M210-10q-26 0-57 9T93 26 46 72t-19 68h94q0-2 1-13t8-26 26-26 52-11q40 0 60 14t20 34q0 22-18 34t-48 21-61 16-61 23-47 38-18 64q0 57 46 86t117 30q50 0 93-15t69-49 26-88h-94q1 31-13 46t-36 22-42 6q-36 0-54-12t-19-33q0-23 18-35t48-21 62-16 62-23 48-37 19-63q0-59-48-87T210-10z"/><glyph unicode="t" glyph-name="t" horiz-adv-x="305" d="M172 0q-49 0-73 24t-25 78v237H12v72q29 0 45 6t23 28 7 71h82V411h94v-72h-94V80h96V0h-93z"/><glyph unicode="u" glyph-name="u" horiz-adv-x="461" d="M180-10q-54 0-84 21T53 65t-17 69-3 67v210h99V201q0-31 6-59t25-45 60-17q39 0 59 17t27 45 8 56l1 213h104V0h-87l-17 78h-2q-2-6-10-20t-23-30-41-27-62-11z"/><glyph unicode="v" glyph-name="v" horiz-adv-x="447" d="M321 411h100v-17L280 0H138L-3 393v18h98L210 84h2l109 327z"/><glyph unicode="w" glyph-name="w" horiz-adv-x="636" d="M102 0 6 394v18h100l68-327h2l88 327h88l91-327h2l68 327h99v-18L515 0H373l-64 235h-2L246 0H102z"/><glyph unicode="x" glyph-name="x" horiz-adv-x="446" d="m0 0 150 212L8 411h112l94-140 94 140h113L279 212 430 0H318L214 151 112 0H0z"/><glyph unicode="y" glyph-name="y" horiz-adv-x="441" d="M-2-191v79h63q15 0 26 3t22 15 25 41l27 60L1 411h105l105-299 113 299h105L227-63q-24-56-44-83t-44-36-63-9H-2z"/><glyph unicode="z" glyph-name="z" horiz-adv-x="445" d="M35 0v74l249 262H49v77h354v-74L159 77h244V0H35z"/><glyph unicode="{" glyph-name="braceleft" horiz-adv-x="344" d="M317-196q-102-20-152-1t-62 78 4 157q6 44 0 68t-20 34-29 12-26 3v98q11 0 26 2t28 13 20 34 1 68q-15 98-4 154t62 76 152 3v-95q-54 13-80 7t-34-27-5-50 9-66q8-48 4-82t-28-56-74-31q74-14 92-54t6-113q-5-36-8-66t3-51 34-26 81 6v-95z"/><glyph unicode="|" glyph-name="bar" horiz-adv-x="222" d="M60-151v752h102v-752H60z"/><glyph unicode="}" glyph-name="braceright" horiz-adv-x="356" d="M38-196v95q55-12 81-6t34 26 4 50-9 67q-12 72 6 112t92 55q-49 9-72 30t-28 56 2 83q5 36 8 66t-3 50-33 26-82-6v95q85 6 133-2t68-34 20-75-10-122q-6-44 0-68t19-34 29-12 27-3v-98q-11 0-26-2t-29-13-20-34 0-68q12-74 12-122t-21-75-69-35-133-2z"/><glyph unicode="~" glyph-name="asciitilde" horiz-adv-x="355" d="M234 197q-26 0-41 9t-24 22-19 22-23 10q-18 0-21-15t-4-42H42q-1 13 0 32t8 39 23 32 48 13q26 0 41-9t25-22 19-22 23-10q18 0 21 16t3 41h60q1-23-3-50t-20-46-56-20z"/><glyph glyph-name="uni00A0" horiz-adv-x="218"/><glyph unicode="¡" glyph-name="exclamdown" horiz-adv-x="204" d="M102 373q32 0 43-16t12-42q0-23-11-39t-44-16q-34 0-45 16t-12 39q0 24 11 41t46 17zM64 196l11-2q11-2 26-2 19 0 27 2t9 2q9-112 16-187t7-122-13-66-47-20q-33 0-46 20t-13 65T48 7t16 189z"/><glyph unicode="¢" glyph-name="cent" horiz-adv-x="464" d="m180-99 6 93Q115 6 69 57T22 197q2 86 47 141t117 70l-6 92h102l-6-92q71-11 108-54t47-98l-93-16q-10 43-33 63t-73 21q-54 0-82-33t-28-86q0-58 27-92t83-35q88 0 106 88l93-16q-9-55-47-99T276-6l6-93H180z"/><glyph unicode="£" glyph-name="sterling" horiz-adv-x="667" d="M115-14 69 62q35 28 62 64t20 89H45v75h78q-24 52-23 102t25 91 72 65 114 25q76 0 123-27t70-71 26-100l-97-14q-7 35-24 64t-47 47-71 15q-42-3-69-28t-31-68 26-101h192v-75H243q7-47-10-76t-43-55q33 16 64 16t60-7 55-16 49-9 43 14q20 15 23 41t-7 54l99 17q21-87-7-135T480 4Q441-9 407-6T339 6t-68 15-70 2-80-33l-1-1q-1-1-5-3z"/><glyph unicode="¤" glyph-name="currency" horiz-adv-x="567" d="M452 6h-34l-41 59q-38-27-93-27-57 0-96 28L146 6h-31l54 77q-41 45-41 126 0 89 50 135l-47 65h34l35-50q34 20 84 20 48 0 82-19l34 49h35l-47-65q51-47 51-135 0-79-41-126l54-77zM284 59q24 0 44 6t37 17l6 6q3 3 7 6l-10-10 4 3q4 3 8 9t5 5q32 39 32 108 0 78-41 118-8 8-22 15-31 16-70 16-42 0-72-16-1-1-11-8t-10-8q-41-38-41-117 0-33 12-67t39-59q15-12 35-18t48-6z"/><glyph unicode="¥" glyph-name="yen" horiz-adv-x="523" d="M92 90v58h118v46l-118-1v58h91L18 563h115l130-275 130 275h114L339 251h93v-55l-120-1v-47h120V90H312V0H210v90H92z"/><glyph unicode="¦" glyph-name="brokenbar" horiz-adv-x="222" d="M60 298v303h102V298H60zm0-449v303h102v-303H60z"/><glyph unicode="§" glyph-name="section" horiz-adv-x="600" d="M418 223v-2q23-15 39-40t15-60q-3-56-51-88T304 1q-47 0-90 16t-72 50-30 86h31q0-2 1-15t9-31 25-35 48-29 80-12q45 0 72 11t40 27 18 31 5 22q1 38-21 59t-58 34-76 21-77 24-58 40-20 71q1 28 20 48t48 32v1q-31 17-50 42t-18 62q2 36 25 61t61 40 85 14q47 0 84-16t60-49 20-81h-30q1 36-13 59t-36 35-45 18-42 5q-59 0-97-25t-41-63q0-37 22-58t58-32 76-21 76-23 58-41 20-73q-1-28-16-48t-38-35zM162 369q0-35 17-55t48-32 65-20 70-18q11-2 15-3t6-2q8-2 12-1t6 3q26 17 33 37t7 29q1 33-16 54t-47 34-65 21-69 18q-14 3-21 4t-21-6q-39-26-40-63z"/><glyph unicode="¨" glyph-name="dieresis" horiz-adv-x="600" d="M107 671q-37 0-49 18t-13 44q0 24 12 42t50 18q37 0 48-18t12-42q0-25-11-43t-49-19zm181 0q-36 0-49 18t-13 44q0 24 13 42t49 18q37 0 49-18t12-42q0-25-12-43t-49-19z"/><glyph unicode="©" glyph-name="copyright" horiz-adv-x="618" d="M328-10q-61 0-114 22t-93 63-63 94-23 114q0 59 22 111t63 93 94 63 114 23q59 0 111-23t93-63 63-92 23-112q0-61-23-114t-63-93-92-63-112-23zm0 57q69 0 121 29t82 83 30 123q0 69-29 121t-82 82-122 30q-70 0-123-29t-83-82-30-122q0-70 30-123t83-82 123-30zm-1 68q-68 0-115 42t-47 123q1 80 48 124t116 44q68 0 106-36t47-87l-62-11q-8 37-28 56t-63 19q-49 0-74-28t-25-76q0-52 24-81t75-29q76 0 91 84l64-18q-10-52-48-89t-109-37z"/><glyph unicode="ª" glyph-name="ordfeminine" horiz-adv-x="314" d="M129 404q-56 0-79 38T26 542q0 62 24 100t79 39q32 0 50-11t27-24 12-19l1 53h71V411h-60l-11 43h-1q-3-6-12-18t-27-22-50-10zm28 59q37 0 49 22t12 56q0 35-12 57t-49 22q-38 0-51-23t-13-56q0-32 13-55t51-23z"/><glyph unicode="«" glyph-name="guillemotleft" horiz-adv-x="553" d="M324 527v-75L109 295l215-164V60L24 295l300 232zm176 0v-82L286 295l214-157V60L200 295l300 232z"/><glyph unicode="¬" glyph-name="logicalnot" horiz-adv-x="317" d="M40 191v66h222V110h-67v81H40z"/><glyph unicode="­" glyph-name="uni00AD" horiz-adv-x="280" d="M285 189v71h222v-71H285z"/><glyph unicode="®" glyph-name="registered" horiz-adv-x="408" d="M203 229q-48 0-87 23t-62 62-24 86q0 48 23 87t63 62 87 23q47 0 85-23t62-62 23-87q0-47-23-86t-61-62-86-23zm0 36q40 0 70 18t47 49 17 68q0 56-36 96t-98 40q-62 0-99-40t-37-96q0-37 16-67t48-49 72-19zm-65 53v171h64q34 0 53-11t19-40q0-21-11-34t-36-14q18 0 24-9t8-19 5-17 17-1v-20q-8-7-20-8t-22 7-9 30q0 22-8 30t-50 5v-70h-34zm34 94h28q21 0 31 3t10 20q0 19-12 22t-35 4h-22v-49z"/><glyph unicode="¯" glyph-name="overscore" horiz-adv-x="355" d="M40 729v71h275v-71H40z"/><glyph unicode="°" glyph-name="degree" horiz-adv-x="296" d="M139 355q-57 0-83 29t-26 78q0 51 25 81t84 30q57 0 84-30t27-81q0-46-27-76t-84-31zm-1 65q26 0 36 13t10 32q0 19-10 33t-36 14q-26 0-36-14t-11-33q0-20 11-32t36-13z"/><glyph unicode="±" glyph-name="plusminus" horiz-adv-x="317" d="M124 147v76H40v60h84v75h60v-75h78v-60h-78v-76h-60zM40 43v59h222V43H40z"/><glyph unicode="²" glyph-name="uni00B2" horiz-adv-x="243" d="M15 411v45l18 9q18 9 44 25t50 36 35 43q16 33 1 53t-43 20q-25 0-40-17t-9-55l-51 7q-6 53 25 82t81 29q35 0 61-17t34-45-8-61q-12-24-33-43t-45-33-41-22-25-10h159v-46H15z"/><glyph unicode="³" glyph-name="uni00B3" horiz-adv-x="246" d="M128 401q-49 0-81 25t-32 75l51 8q1-30 18-46t45-16q23 0 38 12t15 31q0 21-16 29t-36 9h-29v28h31q18 0 32 7t15 25q0 21-15 33t-39 12q-28 0-42-17t-14-34l-48 8q0 10 9 31t31 39 63 18q48 0 75-21t27-56q0-22-13-39t-39-21q26-3 41-20t16-43q0-36-29-56t-74-21z"/><glyph unicode="´" glyph-name="acute" horiz-adv-x="600" d="M81 632H35v13l45 100h86v-18l-85-95z"/><glyph unicode="µ" glyph-name="uni00B5" horiz-adv-x="543" d="m75-156 1 566h99V200q0-31 6-58t25-45 60-17q38 0 58 17t27 45 9 55v213h104V0h-87l-11 55h-2q-13-23-32-44t-64-21q-36 0-57 11t-33 31h-3v-188H75z"/><glyph unicode="¶" glyph-name="paragraph" horiz-adv-x="526" d="M240-90v403h-22q-55 1-101 19t-73 60-28 114q0 70 27 112t72 61 101 20h100v-1h194v-76h-59V-91h-77l-1 713h-57V-90h-76z"/><glyph unicode="·" glyph-name="middot" horiz-adv-x="246" d="M119 190q-44 0-59 22t-15 51q0 29 15 50t59 22q43 0 57-21t15-51q0-29-14-51t-58-22z"/><glyph unicode="¸" glyph-name="cedilla" horiz-adv-x="301" d="m37-119 31 49q10-10 31-17t43-9 38 4 15 24q0 14-14 20t-33 3-33-15L72-37l43 91 47-18-37-61q14 12 37 16t46 1 40-20 16-44q0-32-22-52t-57-26-74 0-74 31z"/><glyph unicode="¹" glyph-name="uni00B9" horiz-adv-x="181" d="M29 410v47h46v177q-5-25-18-37t-25-17-17-4v60q4-1 19 1t30 12 16 38h49V457h37v-47H29z"/><glyph unicode="º" glyph-name="ordmasculine" horiz-adv-x="315" d="M158 411q-72 0-107 41T15 557q0 62 35 102t108 42q69 0 105-40t37-104q0-63-34-104t-108-42zm0 59q30 0 46 13t22 34 6 41q0 21-6 41t-22 34-46 14q-31 0-47-13t-22-34-6-42q0-21 5-41t22-33 48-14z"/><glyph unicode="»" glyph-name="guillemotright" horiz-adv-x="507" d="m192 527 300-232L192 60v71l214 164-214 157v75zm-177 0 300-232L15 60v78l214 157L15 445v82z"/><glyph unicode="¼" glyph-name="onequarter" horiz-adv-x="715" d="M37 291v48h46v176q-5-24-18-36t-25-17-17-5v60q4-1 19 1t30 13 16 37h49V339h37v-48H37zM176 0l-70 50 234 251 191 262 69-49-226-241L176 0zm274 53v47q34 15 58 45t36 66 12 66h60q0-46-29-95t-82-82h84v38h55v-38h33V53h-33V0h-55v53H450z"/><glyph unicode="½" glyph-name="onehalf" horiz-adv-x="741" d="M37 291v48h46v176q-5-24-18-36t-25-17-17-5v60q4-1 19 1t30 13 16 37h49V339h37v-48H37zM176 0l-70 50 234 251 191 262 69-49-226-241L176 0zm313 0v45l18 9q18 9 44 25t50 36 35 44q16 32 1 52t-43 20q-25 0-40-17t-9-54l-51 6q-6 53 25 82t81 29q35 0 60-17t35-45-8-61q-12-24-33-43t-45-33-41-22-25-9h159V0H489z"/><glyph unicode="¾" glyph-name="threequarters" horiz-adv-x="715" d="M136 296q-49 0-81 25t-32 75l51 8q1-29 18-45t45-17q23 0 38 12t15 32q0 21-16 29t-36 8h-29v28h31q18 0 32 7t15 26q0 20-15 32t-39 13q-28 0-42-17t-14-35l-48 8q0 10 9 31t31 39 63 18q48 0 75-20t27-56q0-23-13-40t-39-21q26-3 41-20t16-42q0-37-29-57t-74-21zM176 0l-70 50 234 251 191 262 69-49-226-241L176 0zm274 53v47q34 15 58 45t36 66 12 66h60q0-46-29-95t-82-82h84v38h55v-38h33V53h-33V0h-55v53H450z"/><glyph unicode="¿" glyph-name="questiondown" horiz-adv-x="443" d="M246 380q35 0 47-18t12-42q0-25-12-42t-47-17q-35 0-47 17t-12 42q0 26 12 43t47 17zm-47-177h92q0-29-14-53t-36-47-44-43-37-44-17-49q-1-34 20-56t63-22q40 0 59 19t24 46 6 45h96q8-46-7-91t-57-76-115-31q-54 0-97 19t-68 53-26 81q0 38 16 66t39 50 47 41 40 42 16 50z"/><glyph unicode="À" glyph-name="Agrave" horiz-adv-x="566" d="m19 0 180 563h167L551 0H442l-48 159H175L127 0H19zm265 520-85-282h171l-86 282zm-25 90-85 95v18h86l45-100v-13h-46z"/><glyph unicode="Á" glyph-name="Aacute" horiz-adv-x="566" d="m19 0 180 563h167L551 0H442l-48 159H175L127 0H19zm265 520-85-282h171l-86 282zm19 90h-46v13l45 100h86v-18l-85-95z"/><glyph unicode="Â" glyph-name="Acircumflex" horiz-adv-x="566" d="m19 0 180 563h167L551 0H442l-48 159H175L127 0H19zm265 520-85-282h171l-86 282zM145 875v8l118 109h43l118-109v-8h-91l-46 51h-5l-44-51h-93z"/><glyph unicode="Ã" glyph-name="Atilde" horiz-adv-x="566" d="m19 0 180 563h167L551 0H442l-48 159H175L127 0H19zm265 520-85-282h171l-86 282zm56 356q-26 0-41 8t-24 20-18 19-23 9q-16 0-19-13t-3-40h-61q0 14 1 32t7 37 23 31 46 13q25 0 40-8t25-20 19-20 22-9q16 0 19 14t3 40h60q1-24-3-50t-20-44-53-19z"/><glyph unicode="Ä" glyph-name="Adieresis" horiz-adv-x="566" d="m19 0 180 563h167L551 0H442l-48 159H175L127 0H19zm265 520-85-282h171l-86 282zm-89 359q-37 0-49 18t-13 44q0 24 12 42t50 18q37 0 48-18t12-42q0-25-11-43t-49-19zm181 0q-36 0-49 18t-13 44q0 24 13 42t49 18q37 0 49-18t12-42q0-25-12-43t-49-19z"/><glyph unicode="Å" glyph-name="Aring" horiz-adv-x="566" d="m19 0 180 563h167L551 0H442l-48 159H175L127 0H19zm265 520-85-282h171l-86 282zm-8 89q-50 0-74 26t-25 71q0 46 24 73t75 28q50 0 76-27t26-74q0-42-26-69t-76-28zm-1 59q21 0 31 11t10 30q0 17-10 29t-31 12q-20 0-30-12t-11-29q0-18 11-29t30-12z"/><glyph unicode="Æ" glyph-name="AE" horiz-adv-x="857" d="m19 0 316 563h476v-88H509V327h232v-84H509V82h312V0H409v159H214L128 0H19zm238 238h152v280L257 238z"/><glyph unicode="Ç" glyph-name="Ccedilla" horiz-adv-x="602" d="M301-10q-79 0-143 32T57 119 19 279q1 94 38 160t101 100 146 34q78 0 133-28t88-76 44-108H464q-7 44-32 69t-60 36-68 11q-89 0-136-50t-48-141q0-97 46-149t136-52q37 0 72 11t60 38 32 72h106q-11-62-44-110t-90-77-137-29zM196-140l31 49q10-10 31-17t43-9 38 4 15 24q0 14-14 20t-33 3-33-15l-43 23 43 91 47-18-37-61q14 12 37 16t46 1 40-20 16-44q0-32-22-52t-57-26-74 0-74 31z"/><glyph unicode="È" glyph-name="Egrave" horiz-adv-x="501" d="M154 82h311V0H53v563h402v-88H154V327h231v-84H154V82zm59 784-85 95v18h86l45-100v-13h-46z"/><glyph unicode="É" glyph-name="Eacute" horiz-adv-x="501" d="M154 82h311V0H53v563h402v-88H154V327h231v-84H154V82zm103 528h-46v13l45 100h86v-18l-85-95z"/><glyph unicode="Ê" glyph-name="Ecircumflex" horiz-adv-x="501" d="M154 82h311V0H53v563h402v-88H154V327h231v-84H154V82zm-43 799v8l118 109h43l118-109v-8h-91l-46 51h-5l-44-51h-93z"/><glyph unicode="Ë" glyph-name="Edieresis" horiz-adv-x="501" d="M154 82h311V0H53v563h402v-88H154V327h231v-84H154V82zm14 797q-37 0-49 18t-13 44q0 24 12 42t50 18q37 0 48-18t12-42q0-25-11-43t-49-19zm181 0q-36 0-49 18t-13 44q0 24 13 42t49 18q37 0 49-18t12-42q0-25-12-43t-49-19z"/><glyph unicode="Ì" glyph-name="Igrave" horiz-adv-x="378" d="M311 87V0H60v87h76v388H60v88h251v-88h-74V87h74zM149 866l-85 95v18h86l45-100v-13h-46z"/><glyph unicode="Í" glyph-name="Iacute" horiz-adv-x="378" d="M311 87V0H60v87h76v388H60v88h251v-88h-74V87h74zM199 866h-46v13l45 100h86v-18l-85-95z"/><glyph unicode="Î" glyph-name="Icircumflex" horiz-adv-x="378" d="M311 87V0H60v87h76v388H60v88h251v-88h-74V87h74zm-10 794v8l118 109h43l118-109v-8h-91l-46 51h-5l-44-51h-93z"/><glyph unicode="Ï" glyph-name="Idieresis" horiz-adv-x="378" d="M311 87V0H60v87h76v388H60v88h251v-88h-74V87h74zm40 792q-37 0-49 18t-13 44q0 24 12 42t50 18q37 0 48-18t12-42q0-25-11-43t-49-19zm181 0q-36 0-49 18t-13 44q0 24 13 42t49 18q37 0 49-18t12-42q0-25-12-43t-49-19z"/><glyph unicode="Ð" glyph-name="Eth" horiz-adv-x="600" d="M63 0v252H0v68h63v243h155q107 0 186-31t122-94 44-156q0-111-43-172T404 24 218 0H63zm101 84h83q66 0 114 15t74 59 26 125q0 97-57 144t-157 48h-83V320h144v-68H164V84z"/><glyph unicode="Ñ" glyph-name="Ntilde" horiz-adv-x="606" d="M443 563h106V0H355L162 518h-2V0H55v563h180L441 45h2v518zm-92 313q-26 0-41 8t-24 20-18 19-23 9q-16 0-19-13t-3-40h-61q0 14 1 32t7 37 23 31 46 13q25 0 40-8t25-20 19-20 22-9q16 0 19 14t3 40h60q1-24-3-50t-20-44-53-19z"/><glyph unicode="Ò" glyph-name="Ograve" horiz-adv-x="612" d="M298-14Q162-14 90 65T18 280q0 89 31 154t93 102 156 37q138 0 209-79t71-214q0-87-32-153T452 23 298-14zm-1 98q90 0 135 56t46 140q0 57-20 101t-60 70-101 26q-88 0-134-54t-46-143q0-55 19-99t60-71 101-26zm-28 526-85 95v18h86l45-100v-13h-46z"/><glyph unicode="Ó" glyph-name="Oacute" horiz-adv-x="612" d="M298-14Q162-14 90 65T18 280q0 89 31 154t93 102 156 37q138 0 209-79t71-214q0-87-32-153T452 23 298-14zm-1 98q90 0 135 56t46 140q0 57-20 101t-60 70-101 26q-88 0-134-54t-46-143q0-55 19-99t60-71 101-26zm31 526h-46v13l45 100h86v-18l-85-95z"/><glyph unicode="Ô" glyph-name="Ocircumflex" horiz-adv-x="612" d="M298-14Q162-14 90 65T18 280q0 89 31 154t93 102 156 37q138 0 209-79t71-214q0-87-32-153T452 23 298-14zm-1 98q90 0 135 56t46 140q0 57-20 101t-60 70-101 26q-88 0-134-54t-46-143q0-55 19-99t60-71 101-26zM160 881v8l118 109h43l118-109v-8h-91l-46 51h-5l-44-51h-93z"/><glyph unicode="Õ" glyph-name="Otilde" horiz-adv-x="612" d="M298-14Q162-14 90 65T18 280q0 89 31 154t93 102 156 37q138 0 209-79t71-214q0-87-32-153T452 23 298-14zm-1 98q90 0 135 56t46 140q0 57-20 101t-60 70-101 26q-88 0-134-54t-46-143q0-55 19-99t60-71 101-26zm59 796q-26 0-41 8t-24 20-18 19-23 9q-16 0-19-13t-3-40h-61q0 14 1 32t7 37 23 31 46 13q25 0 40-8t25-20 19-20 22-9q16 0 19 14t3 40h60q1-24-3-50t-20-44-53-19z"/><glyph unicode="Ö" glyph-name="Odieresis" horiz-adv-x="612" d="M298-14Q162-14 90 65T18 280q0 89 31 154t93 102 156 37q138 0 209-79t71-214q0-87-32-153T452 23 298-14zm-1 98q90 0 135 56t46 140q0 57-20 101t-60 70-101 26q-88 0-134-54t-46-143q0-55 19-99t60-71 101-26zm-81 795q-37 0-49 18t-13 44q0 24 12 42t50 18q37 0 48-18t12-42q0-25-11-43t-49-19zm181 0q-36 0-49 18t-13 44q0 24 13 42t49 18q37 0 49-18t12-42q0-25-12-43t-49-19z"/><glyph unicode="×" glyph-name="multiply" horiz-adv-x="319" d="m284 293-76-77 76-76-47-48-77 77-77-78-48 49 77 76-77 77 48 48 77-76 76 76 48-48z"/><glyph unicode="Ø" glyph-name="Oslash" horiz-adv-x="600" d="m84-25 41 59Q72 72 45 134T18 280q0 89 31 154t93 102 156 37q101 0 168-45l45 65 27-15-47-69q87-77 87-229 0-87-32-153T452 23 298-14q-85 0-146 32l-41-59-27 16zm33 305q0-51 16-93t51-68l224 325q-21 16-49 24t-62 9q-88 0-134-54t-46-143zM297 84q90 0 135 56t46 140q0 43-12 80t-35 63L210 103q37-19 87-19z"/><glyph unicode="Ù" glyph-name="Ugrave" horiz-adv-x="595" d="M298-14q-120 0-182 66T53 240v323h109V241q0-62 20-96t51-48 65-14q38 0 69 13t49 48 19 97v322h108V240q0-123-61-188T298-14zm-31 624-85 95v18h86l45-100v-13h-46z"/><glyph unicode="Ú" glyph-name="Uacute" horiz-adv-x="595" d="M298-14q-120 0-182 66T53 240v323h109V241q0-62 20-96t51-48 65-14q38 0 69 13t49 48 19 97v322h108V240q0-123-61-188T298-14zm19 624h-46v13l45 100h86v-18l-85-95z"/><glyph unicode="Û" glyph-name="Ucircumflex" horiz-adv-x="595" d="M298-14q-120 0-182 66T53 240v323h109V241q0-62 20-96t51-48 65-14q38 0 69 13t49 48 19 97v322h108V240q0-123-61-188T298-14zM160 875v8l118 109h43l118-109v-8h-91l-46 51h-5l-44-51h-93z"/><glyph unicode="Ü" glyph-name="Udieresis" horiz-adv-x="595" d="M298-14q-120 0-182 66T53 240v323h109V241q0-62 20-96t51-48 65-14q38 0 69 13t49 48 19 97v322h108V240q0-123-61-188T298-14zm-88 893q-37 0-49 18t-13 44q0 24 12 42t50 18q37 0 48-18t12-42q0-25-11-43t-49-19zm181 0q-36 0-49 18t-13 44q0 24 13 42t49 18q37 0 49-18t12-42q0-25-12-43t-49-19z"/><glyph unicode="Ý" glyph-name="Yacute" horiz-adv-x="447" d="M171 0v199L-21 563H93l131-275 129 275h114L272 200V0H171zm67 610h-46v13l45 100h86v-18l-85-95z"/><glyph unicode="Þ" glyph-name="Thorn" horiz-adv-x="491" d="M159 0H57v563h102v-99h117q94 0 146-47t52-141q0-84-53-130T276 99H159V0zm103 381H159V173h103q54 0 87 26t33 78q0 53-32 78t-88 26z"/><glyph unicode="ß" glyph-name="germandbls" horiz-adv-x="582" d="M377-10q-66 0-105 23t-58 58-21 72h88q0-1 2-10t11-22 25-22 46-10q45 0 69 25t25 57q0 31-19 50t-48 33-58 25-48 27-20 38q0 20 12 31t29 18 34 15 29 21 12 39q0 9-18 14t-41 6-38 2H157V0H55v563h286q32 0 64-8t51-25 21-52q0-31-13-50t-32-30-39-19-33-18-13-25q0-17 21-28t53-22 63-27 53-43 22-73q0-47-25-81T467 9t-90-19z"/><glyph unicode="à" glyph-name="agrave" horiz-adv-x="453" d="M178-10Q93-10 57 48T21 200q0 95 36 153t121 59q48 0 76-16t42-37 17-30h2v82h105V0h-88l-17 67h-2q-3-9-17-27T253 6t-75-16zm42 86q56 0 75 35t20 88q0 55-20 89t-75 34q-39 0-60-17t-30-44-9-62q0-34 8-62t30-44 61-17zm-16 379-85 95v18h86l45-100v-13h-46z"/><glyph unicode="á" glyph-name="aacute" horiz-adv-x="453" d="M178-10Q93-10 57 48T21 200q0 95 36 153t121 59q48 0 76-16t42-37 17-30h2v82h105V0h-88l-17 67h-2q-3-9-17-27T253 6t-75-16zm42 86q56 0 75 35t20 88q0 55-20 89t-75 34q-39 0-60-17t-30-44-9-62q0-34 8-62t30-44 61-17zm30 379h-46v13l45 100h86v-18l-85-95z"/><glyph unicode="â" glyph-name="acircumflex" horiz-adv-x="453" d="M178-10Q93-10 57 48T21 200q0 95 36 153t121 59q48 0 76-16t42-37 17-30h2v82h105V0h-88l-17 67h-2q-3-9-17-27T253 6t-75-16zm42 86q56 0 75 35t20 88q0 55-20 89t-75 34q-39 0-60-17t-30-44-9-62q0-34 8-62t30-44 61-17zM85 463v8l118 109h43l118-109v-8h-91l-46 51h-5l-44-51H85z"/><glyph unicode="ã" glyph-name="atilde" horiz-adv-x="453" d="M178-10Q93-10 57 48T21 200q0 95 36 153t121 59q48 0 76-16t42-37 17-30h2v82h105V0h-88l-17 67h-2q-3-9-17-27T253 6t-75-16zm42 86q56 0 75 35t20 88q0 55-20 89t-75 34q-39 0-60-17t-30-44-9-62q0-34 8-62t30-44 61-17zm58 395q-26 0-41 8t-24 20-18 19-23 9q-16 0-19-13t-3-40H89q0 14 1 32t7 37 23 31 46 13q25 0 40-8t25-20 19-20 22-9q16 0 19 14t3 40h60q1-24-3-50t-20-44-53-19z"/><glyph unicode="ä" glyph-name="adieresis" horiz-adv-x="513" d="M149 456q-37 0-49 18t-13 44q0 24 12 42t50 18q37 0 48-18t12-42q0-25-11-43t-49-19zm181 0q-36 0-49 18t-13 44q0 24 13 42t49 18q37 0 49-18t12-42q0-25-12-43t-49-19zM200-10q-61 0-101 29T38 97 17 205q0 60 21 108t61 77 101 29q47 0 81-18t58-48v58h101V120q0-34 13-48t43 1l1-58q-1 1-18-12t-57-13q-32 0-49 12t-25 29-8 34q-22-33-56-54t-84-21zm27 80q41 0 63 18t32 50 10 67q0 38-9 69t-33 49-63 19q-42 0-65-19t-33-50-9-68q0-35 9-66t32-50 66-19z"/><glyph unicode="å" glyph-name="aring" horiz-adv-x="453" d="M178-10Q93-10 57 48T21 200q0 95 36 153t121 59q48 0 76-16t42-37 17-30h2v82h105V0h-88l-17 67h-2q-3-9-17-27T253 6t-75-16zm42 86q56 0 75 35t20 88q0 55-20 89t-75 34q-39 0-60-17t-30-44-9-62q0-34 8-62t30-44 61-17zm2 650q-50 0-74 26t-25 71q0 46 24 73t75 28q50 0 76-27t26-74q0-42-26-69t-76-28zm-1 59q21 0 31 11t10 30q0 17-10 29t-31 12q-20 0-30-12t-11-29q0-18 11-29t30-12z"/><glyph unicode="æ" glyph-name="ae" horiz-adv-x="729" d="M145 0Q89 0 55 29t-34 78q0 44 25 68t65 38 83 22q43 10 65 17t29 15 8 23q0 26-21 41t-51 15q-20 0-40-7t-32-25-11-48H45q2 56 28 90t67 50 85 16q40 0 77-14t57-43q24 26 60 42t85 16q52 0 94-25t67-69 27-100l1-26H395q0-54 28-84t80-31q40 0 63 19t31 52l98-18q-16-59-63-100T504 0q-87 0-134 42t-64 102q-2-19-12-43t-29-48-49-38-71-15zm251 257h194q0 7-3 22t-11 32-27 28-49 11q-39 0-61-17t-31-39-12-37zM185 73q32 2 57 24t39 58 14 77q-8-8-29-14t-41-13q-40-11-71-30t-30-56q2-25 20-36t41-10z"/><glyph unicode="ç" glyph-name="ccedilla" horiz-adv-x="469" d="M235-10q-58 0-105 23T55 83 27 197q2 67 29 115t74 74 107 26q61 0 104-23t68-61 27-78h-94q-15 74-102 74-54 0-83-33t-30-86q0-58 28-92t85-35q38 0 66 20t36 59h94q-3-43-27-81t-68-62-106-24zM115 117l31 49q10-10 31-17t43-9 38 4 15 24q0 14-14 20t-33 3-33-15l-43 23 43 91 47-18-37-61q14 12 37 16t46 1 40-20 16-44q0-32-22-52t-57-26-74 0-74 31z"/><glyph unicode="è" glyph-name="egrave" horiz-adv-x="462" d="M229-10q-71 0-115 30T48 98 25 199q-1 62 23 110t70 76 108 28q55 0 98-24t70-67 27-103v-26H122q0-57 28-87t77-31q38 0 63 19t31 50h99q-7-65-56-109T229-10zM125 239h194q-1 7-4 22t-13 31-29 27-49 11q-40 0-60-16t-29-38-10-37zm79 216-85 95v18h86l45-100v-13h-46z"/><glyph unicode="é" glyph-name="eacute" horiz-adv-x="462" d="M229-10q-71 0-115 30T48 98 25 199q-1 62 23 110t70 76 108 28q55 0 98-24t70-67 27-103v-26H122q0-57 28-87t77-31q38 0 63 19t31 50h99q-7-65-56-109T229-10zM125 239h194q-1 7-4 22t-13 31-29 27-49 11q-40 0-60-16t-29-38-10-37zm123 216h-46v13l45 100h86v-18l-85-95z"/><glyph unicode="ê" glyph-name="ecircumflex" horiz-adv-x="462" d="M229-10q-71 0-115 30T48 98 25 199q-1 62 23 110t70 76 108 28q55 0 98-24t70-67 27-103v-26H122q0-57 28-87t77-31q38 0 63 19t31 50h99q-7-65-56-109T229-10zM125 239h194q-1 7-4 22t-13 31-29 27-49 11q-40 0-60-16t-29-38-10-37zM86 458v8l118 109h43l118-109v-8h-91l-46 51h-5l-44-51H86z"/><glyph unicode="ë" glyph-name="edieresis" horiz-adv-x="462" d="M229-10q-71 0-115 30T48 98 25 199q-1 62 23 110t70 76 108 28q55 0 98-24t70-67 27-103v-26H122q0-57 28-87t77-31q38 0 63 19t31 50h99q-7-65-56-109T229-10zM125 239h194q-1 7-4 22t-13 31-29 27-49 11q-40 0-60-16t-29-38-10-37zm9 217q-37 0-49 18t-13 44q0 24 12 42t50 18q37 0 48-18t12-42q0-25-11-43t-49-19zm181 0q-36 0-49 18t-13 44q0 24 13 42t49 18q37 0 49-18t12-42q0-25-12-43t-49-19z"/><glyph unicode="ì" glyph-name="igrave" horiz-adv-x="207" d="M85 458 0 553v18h87l45-100v-13H85zM53 0v411h102V0H53z"/><glyph unicode="í" glyph-name="iacute" horiz-adv-x="202" d="M115 459H68v14l45 100h87v-19l-85-95zM42 0v413h102V0H42z"/><glyph unicode="î" glyph-name="icircumflex" horiz-adv-x="246" d="M-16 458v8l118 109h44l117-109v-8h-90l-47 51h-4l-45-51h-93zM73 0v413h102V0H73z"/><glyph unicode="ï" glyph-name="idieresis" horiz-adv-x="260" d="M40 456q-36 0-49 18t-13 44q0 24 13 42t49 18q37 0 49-18t12-42q0-25-12-43t-49-19zm182 0q-37 0-49 18t-13 44q0 24 12 42t50 18q36 0 48-18t12-42q0-25-12-43t-48-19zM79 0v413h102V0H79z"/><glyph unicode="ð" glyph-name="eth" horiz-adv-x="516" d="M253-10q-69 0-116 29T66 93t-27 97 16 97 59 75 100 29q47 0 80-17t54-40 29-40 10-18h2q-10 49-45 95t-74 82l-54-32-37 31 54 33q-22 17-40 28t-28 16l74 85q54-25 98-66l63 38 37-32-67-40q50-59 76-129t29-139-20-128-74-93-128-35zm137 182q0 45-19 76t-50 47-63 19-62-10-45-40-13-71q3-44 27-72t59-39 69-6 62 30 35 66z"/><glyph unicode="ñ" glyph-name="ntilde" d="M37 0v409h87l17-87h2q1 3 7 16t22 31 42 29 67 13q55 0 85-22t43-55 16-70 3-65V0H328v200q0 33-6 60t-25 44-58 17q-40 0-61-18t-29-46-8-61V0H37zm263 471q-26 0-41 8t-24 20-18 19-23 9q-16 0-19-13t-3-40h-61q0 14 1 32t7 37 23 31 46 13q25 0 40-8t25-20 19-20 22-9q16 0 19 14t3 40h60q1-24-3-50t-20-44-53-19z"/><glyph unicode="ò" glyph-name="ograve" horiz-adv-x="472" d="M231-10q-70 0-116 27T46 91 23 200q-1 92 51 151t157 60q101 0 153-58t53-153q0-59-22-107t-68-75-116-28zm0 86q44 0 67 19t32 48 8 60q0 31-8 61t-31 49-68 19q-45 0-68-19t-32-49-9-61q0-30 8-59t32-49 69-19zm-27 379-85 95v18h86l45-100v-13h-46z"/><glyph unicode="ó" glyph-name="oacute" horiz-adv-x="472" d="M231-10q-70 0-116 27T46 91 23 200q-1 92 51 151t157 60q101 0 153-58t53-153q0-59-22-107t-68-75-116-28zm0 86q44 0 67 19t32 48 8 60q0 31-8 61t-31 49-68 19q-45 0-68-19t-32-49-9-61q0-30 8-59t32-49 69-19zm17 379h-46v13l45 100h86v-18l-85-95z"/><glyph unicode="ô" glyph-name="ocircumflex" horiz-adv-x="472" d="M231-10q-70 0-116 27T46 91 23 200q-1 92 51 151t157 60q101 0 153-58t53-153q0-59-22-107t-68-75-116-28zm0 86q44 0 67 19t32 48 8 60q0 31-8 61t-31 49-68 19q-45 0-68-19t-32-49-9-61q0-30 8-59t32-49 69-19zM86 458v8l118 109h43l118-109v-8h-91l-46 51h-5l-44-51H86z"/><glyph unicode="õ" glyph-name="otilde" horiz-adv-x="472" d="M231-10q-70 0-116 27T46 91 23 200q-1 92 51 151t157 60q101 0 153-58t53-153q0-59-22-107t-68-75-116-28zm0 86q44 0 67 19t32 48 8 60q0 31-8 61t-31 49-68 19q-45 0-68-19t-32-49-9-61q0-30 8-59t32-49 69-19zm53 395q-26 0-41 8t-24 20-18 19-23 9q-16 0-19-13t-3-40H95q0 14 1 32t7 37 23 31 46 13q25 0 40-8t25-20 19-20 22-9q16 0 19 14t3 40h60q1-24-3-50t-20-44-53-19z"/><glyph unicode="ö" glyph-name="odieresis" horiz-adv-x="472" d="M231-10q-70 0-116 27T46 91 23 200q-1 92 51 151t157 60q101 0 153-58t53-153q0-59-22-107t-68-75-116-28zm0 86q44 0 67 19t32 48 8 60q0 31-8 61t-31 49-68 19q-45 0-68-19t-32-49-9-61q0-30 8-59t32-49 69-19zm-97 380q-37 0-49 18t-13 44q0 24 12 42t50 18q37 0 48-18t12-42q0-25-11-43t-49-19zm181 0q-36 0-49 18t-13 44q0 24 13 42t49 18q37 0 49-18t12-42q0-25-12-43t-49-19z"/><glyph unicode="÷" glyph-name="divide" horiz-adv-x="317" d="M151 296q-20 0-30 11t-10 29q0 17 10 28t30 12q19 0 29-11t10-29q0-17-9-28t-30-12zM40 189v71h222v-71H40zM151 71q-20 0-30 11t-10 29q0 17 10 28t30 12q19 0 29-11t10-29q0-17-9-28t-30-12z"/><glyph unicode="ø" glyph-name="oslash" horiz-adv-x="465" d="m60-25 35 55q-36 28-54 72t-18 98q-1 92 51 151t157 60q52 0 93-17l36 57 27-15-35-56q42-26 63-72t22-108q0-59-22-107t-68-75-116-28q-63 0-109 24L87-41 60-25zm62 228q0-24 5-48t19-43l133 211q-20 9-48 9-45 0-68-19t-32-49-9-61zM231 76q44 0 67 19t32 48 8 60q0 29-6 56t-27 47L170 91q24-15 61-15z"/><glyph unicode="ù" glyph-name="ugrave" horiz-adv-x="461" d="M180-10q-54 0-84 21T53 65t-17 69-3 67v210h99V201q0-31 6-59t25-45 60-17q39 0 59 17t27 45 8 56l1 213h104V0h-87l-17 78h-2q-2-6-10-20t-23-30-41-27-62-11zm27 468-85 95v18h86l45-100v-13h-46z"/><glyph unicode="ú" glyph-name="uacute" horiz-adv-x="461" d="M180-10q-54 0-84 21T53 65t-17 69-3 67v210h99V201q0-31 6-59t25-45 60-17q39 0 59 17t27 45 8 56l1 213h104V0h-87l-17 78h-2q-2-6-10-20t-23-30-41-27-62-11zm70 469h-46v13l45 100h86v-18l-85-95z"/><glyph unicode="û" glyph-name="ucircumflex" horiz-adv-x="461" d="M180-10q-54 0-84 21T53 65t-17 69-3 67v210h99V201q0-31 6-59t25-45 60-17q39 0 59 17t27 45 8 56l1 213h104V0h-87l-17 78h-2q-2-6-10-20t-23-30-41-27-62-11zM85 458v8l118 109h43l118-109v-8h-91l-46 51h-5l-44-51H85z"/><glyph unicode="ü" glyph-name="udieresis" horiz-adv-x="461" d="M180-10q-54 0-84 21T53 65t-17 69-3 67v210h99V201q0-31 6-59t25-45 60-17q39 0 59 17t27 45 8 56l1 213h104V0h-87l-17 78h-2q-2-6-10-20t-23-30-41-27-62-11zm-47 466q-37 0-49 18t-13 44q0 24 12 42t50 18q37 0 48-18t12-42q0-25-11-43t-49-19zm181 0q-36 0-49 18t-13 44q0 24 13 42t49 18q37 0 49-18t12-42q0-25-12-43t-49-19z"/><glyph unicode="ý" glyph-name="yacute" horiz-adv-x="441" d="M-2-191v79h63q15 0 26 3t22 15 25 41l27 60L1 411h105l105-299 113 299h105L227-63q-24-56-44-83t-44-36-63-9H-2zm225 650h-46v13l45 100h86v-18l-85-95z"/><glyph unicode="þ" glyph-name="thorn" horiz-adv-x="494" d="M50-199v762h105V299q1 3 9 20t24 38 44 37 69 16q55 0 90-30t51-77 17-99q0-53-16-102t-51-80-92-32q-36 0-63 13t-44 32-27 34-11 18v-286H50zM251 75q38 0 59 18t29 46 9 58q0 31-9 59t-30 47-60 18q-41 0-64-23t-30-63v-75q7-38 29-61t67-24zm-99 122q0-19 3-35v71q-3-16-3-36z"/><glyph unicode="ÿ" glyph-name="ydieresis" horiz-adv-x="441" d="M-2-191v79h63q15 0 26 3t22 15 25 41l27 60L1 411h105l105-299 113 299h105L227-63q-24-56-44-83t-44-36-63-9H-2zm128 647q-37 0-49 18t-13 44q0 24 12 42t50 18q37 0 48-18t12-42q0-25-11-43t-49-19zm181 0q-36 0-49 18t-13 44q0 24 13 42t49 18q37 0 49-18t12-42q0-25-12-43t-49-19z"/><glyph unicode="–" glyph-name="endash" horiz-adv-x="424" d="M40 189v71h329v-71H40z"/><glyph unicode="—" glyph-name="emdash" horiz-adv-x="577" d="M40 189v71h482v-71H40z"/><glyph unicode="‘" glyph-name="quoteleft" horiz-adv-x="240" d="M100 321q-31 0-44 16t-13 40v2q0 8 2 29t9 47 22 51 40 41 64 16v-86q-38 0-58-12t-28-30h4q33 0 46-16t13-41q0-24-13-40t-44-17z"/><glyph unicode="’" glyph-name="quoteright" horiz-adv-x="219" d="M35 321v85q38 0 58 13t29 30h-5q-32 0-45 16t-13 41q0 24 12 40t44 17q32 0 44-16t13-41v-1q0-9-2-30t-9-47-21-50-40-41-65-16z"/><glyph unicode="‚" glyph-name="quotesinglbase" horiz-adv-x="234" d="M48-93v86q39 0 58 13t29 29h-4q-33 0-46 17T72 92q0 24 12 41t45 17q31 0 43-16t13-41v-2q0-8-2-29t-9-47-21-51-40-41-65-16z"/><glyph unicode="“" glyph-name="quotedblleft" horiz-adv-x="394" d="M43 321v85q39 0 58 13t29 30h-4q-33 0-46 16t-13 41q0 24 12 40t45 17q31 0 43-16t13-41v-1q0-9-2-30t-9-47-21-50-40-41-65-16zm161 0v85q38 0 58 13t29 30h-5q-32 0-45 16t-13 41q0 24 12 40t44 17q32 0 44-16t13-41v-1q0-9-2-30t-9-47-21-50-40-41-65-16z"/><glyph unicode="”" glyph-name="quotedblright" horiz-adv-x="394" d="M261 321q-32 0-44 16t-13 40v2q0 8 2 29t9 47 21 51 40 41 65 16v-86q-38 0-58-12t-29-30h5q32 0 45-16t13-41q0-24-12-40t-44-17zm-161 0q-31 0-44 16t-13 40v2q0 8 2 29t9 47 22 51 40 41 64 16v-86q-38 0-58-12t-28-30h4q33 0 46-16t13-41q0-24-13-40t-44-17z"/><glyph unicode="„" glyph-name="quotedblbase" horiz-adv-x="372" d="M35-93v86Q73-7 93 6t29 29h-5q-32 0-45 17T59 92q0 24 12 41t44 17q32 0 44-16t13-41v-2q0-8-2-29t-9-47-21-51-40-41-65-16zm161 0v86q38 0 58 13t28 29h-4q-33 0-46 17t-13 40q0 24 13 41t44 17q31 0 44-16t13-41v-2q0-8-2-29t-9-47-22-51-40-41-64-16z"/><glyph unicode="•" glyph-name="bullet" horiz-adv-x="262" d="M119 190q-44 0-59 22t-15 51q0 29 15 50t59 22q43 0 57-21t15-51q0-29-14-51t-58-22z"/><glyph unicode="‹" glyph-name="guilsinglleft" horiz-adv-x="409" d="M369 406v-81l-252-92 252-91V60L40 233l329 173z"/><glyph unicode="›" glyph-name="guilsinglright" horiz-adv-x="417" d="m43 406 329-173L43 60v82l252 91-252 92v81z"/></font>
</defs>
</svg>
